<svg width="1280" height="720" xmlns="http://www.w3.org/2000/svg" xmlns:xlink="http://www.w3.org/1999/xlink" overflow="hidden"><defs><clipPath id="clip0"><rect x="0" y="0" width="1280" height="720"/></clipPath></defs><g clip-path="url(#clip0)"><rect x="0" y="0" width="1280" height="720" fill="#FFFFFF"/><text font-family="DengXian,DengXian_MSFontService,sans-serif" font-weight="400" font-size="27" transform="translate(500.986 69)">行邻过滤<tspan x="106.667" y="0">(adj on id</tspan>!=_id<tspan x="272.833" y="0">)</tspan></text><path d="M221.663 157.873 221.663 353.873" stroke="#000000" stroke-width="1.33333" stroke-linejoin="round" stroke-miterlimit="10" fill="none" fill-rule="evenodd"/><path d="M275.721 157.873 275.721 353.873" stroke="#000000" stroke-width="1.33333" stroke-linejoin="round" stroke-miterlimit="10" fill="none" fill-rule="evenodd"/><path d="M166.938 197.473 330.446 197.473" stroke="#000000" stroke-width="1.33333" stroke-linejoin="round" stroke-miterlimit="10" fill="none" fill-rule="evenodd"/><path d="M166.938 236.407 330.446 236.407" stroke="#000000" stroke-width="1.33333" stroke-linejoin="round" stroke-miterlimit="10" fill="none" fill-rule="evenodd"/><path d="M166.938 275.34 330.446 275.34" stroke="#000000" stroke-width="1.33333" stroke-linejoin="round" stroke-miterlimit="10" fill="none" fill-rule="evenodd"/><path d="M166.938 314.273 330.446 314.273" stroke="#000000" stroke-width="1.33333" stroke-linejoin="round" stroke-miterlimit="10" fill="none" fill-rule="evenodd"/><path d="M167.605 157.873 167.605 353.873" stroke="#000000" stroke-width="1.33333" stroke-linejoin="round" stroke-miterlimit="10" fill="none" fill-rule="evenodd"/><path d="M329.779 157.873 329.779 353.873" stroke="#000000" stroke-width="1.33333" stroke-linejoin="round" stroke-miterlimit="10" fill="none" fill-rule="evenodd"/><path d="M166.938 158.54 330.446 158.54" stroke="#000000" stroke-width="1.33333" stroke-linejoin="round" stroke-miterlimit="10" fill="none" fill-rule="evenodd"/><path d="M166.938 353.207 330.446 353.207" stroke="#000000" stroke-width="1.33333" stroke-linejoin="round" stroke-miterlimit="10" fill="none" fill-rule="evenodd"/><text font-family="DengXian,DengXian_MSFontService,sans-serif" font-weight="400" font-size="24" transform="translate(188.634 185)">a<tspan x="53.7248" y="0">1</tspan><tspan x="107.783" y="0">1</tspan><tspan x="0" y="39">a</tspan><tspan x="53.7248" y="39">1</tspan><tspan x="107.783" y="39">2</tspan><tspan x="-0.916702" y="78">b</tspan><tspan x="53.7248" y="78">2</tspan><tspan x="107.783" y="78">0</tspan><tspan x="-0.916702" y="117">b</tspan><tspan x="53.7248" y="117">3</tspan><tspan x="107.783" y="117">0</tspan><tspan x="0" y="156">a</tspan><tspan x="53.7248" y="156">1</tspan><tspan x="107.783" y="156">0</tspan><tspan x="-7.30499" y="-38">id</tspan><tspan x="47.763" y="-38">F2</tspan><tspan x="102.831" y="-38">F3</tspan></text><path d="M599.663 157.873 599.663 353.873" stroke="#000000" stroke-width="1.33333" stroke-linejoin="round" stroke-miterlimit="10" fill="none" fill-rule="evenodd"/><path d="M653.721 157.873 653.721 353.873" stroke="#000000" stroke-width="1.33333" stroke-linejoin="round" stroke-miterlimit="10" fill="none" fill-rule="evenodd"/><path d="M544.938 197.473 708.446 197.473" stroke="#000000" stroke-width="1.33333" stroke-linejoin="round" stroke-miterlimit="10" fill="none" fill-rule="evenodd"/><path d="M544.938 236.407 708.446 236.407" stroke="#000000" stroke-width="1.33333" stroke-linejoin="round" stroke-miterlimit="10" fill="none" fill-rule="evenodd"/><path d="M544.938 275.34 708.446 275.34" stroke="#000000" stroke-width="1.33333" stroke-linejoin="round" stroke-miterlimit="10" fill="none" fill-rule="evenodd"/><path d="M544.938 314.273 708.446 314.273" stroke="#000000" stroke-width="1.33333" stroke-linejoin="round" stroke-miterlimit="10" fill="none" fill-rule="evenodd"/><path d="M545.605 157.873 545.605 353.873" stroke="#000000" stroke-width="1.33333" stroke-linejoin="round" stroke-miterlimit="10" fill="none" fill-rule="evenodd"/><path d="M707.779 157.873 707.779 353.873" stroke="#000000" stroke-width="1.33333" stroke-linejoin="round" stroke-miterlimit="10" fill="none" fill-rule="evenodd"/><path d="M544.938 158.54 708.446 158.54" stroke="#000000" stroke-width="1.33333" stroke-linejoin="round" stroke-miterlimit="10" fill="none" fill-rule="evenodd"/><path d="M544.938 353.207 708.446 353.207" stroke="#000000" stroke-width="1.33333" stroke-linejoin="round" stroke-miterlimit="10" fill="none" fill-rule="evenodd"/><text font-family="DengXian,DengXian_MSFontService,sans-serif" font-weight="400" font-size="24" transform="translate(566.634 185)">a<tspan x="53.7248" y="0">1</tspan><tspan x="107.783" y="0">1</tspan><tspan x="0" y="39">a</tspan><tspan x="53.7248" y="39">1</tspan><tspan x="107.783" y="39">2</tspan><tspan x="-0.916687" y="78">b</tspan><tspan x="53.7248" y="78">2</tspan><tspan x="107.783" y="78">0</tspan><tspan x="-0.916687" y="117">b</tspan><tspan x="53.7248" y="117">3</tspan><tspan x="107.783" y="117">0</tspan><tspan x="0" y="156">a</tspan><tspan x="53.7248" y="156">1</tspan><tspan x="107.783" y="156">0</tspan></text><rect x="533" y="189" width="187" height="55" stroke="#000000" stroke-width="2" stroke-miterlimit="8" stroke-dasharray="8 6" fill="none"/><path d="M0 0.333333-24.0001 0.333333-23.6667 0-23.6667 45.3111-24.0001 44.9777 6.03748 44.9777 6.03748 45.6444-24.3334 45.6444-24.3334-0.333333 0-0.333333ZM4.70415 41.3111 12.7041 45.3111 4.70415 49.3111Z" transform="matrix(1 -1.22465e-16 -1.22465e-16 -1 533.5 216.811)"/><path d="M524.5 163.5 534.735 181.843" stroke="#000000" stroke-width="0.666667" stroke-miterlimit="8" fill="none" fill-rule="evenodd"/><path d="M0 0 10.2351 17.1213" stroke="#000000" stroke-width="0.666667" stroke-miterlimit="8" fill="none" fill-rule="evenodd" transform="matrix(1 0 0 -1 524.5 180.621)"/><path d="M941.605 197.473 995.663 197.473 995.663 236.407 941.605 236.407Z" fill="#FF0000" fill-rule="evenodd"/><path d="M995.663 197.473 1049.72 197.473 1049.72 236.407 995.663 236.407Z" fill="#FF0000" fill-rule="evenodd"/><path d="M1049.72 197.473 1103.78 197.473 1103.78 236.407 1049.72 236.407Z" fill="#FF0000" fill-rule="evenodd"/><path d="M995.663 157.873 995.663 353.873" stroke="#000000" stroke-width="1.33333" stroke-linejoin="round" stroke-miterlimit="10" fill="none" fill-rule="evenodd"/><path d="M1049.72 157.873 1049.72 353.873" stroke="#000000" stroke-width="1.33333" stroke-linejoin="round" stroke-miterlimit="10" fill="none" fill-rule="evenodd"/><path d="M940.938 197.473 1104.45 197.473" stroke="#000000" stroke-width="1.33333" stroke-linejoin="round" stroke-miterlimit="10" fill="none" fill-rule="evenodd"/><path d="M940.938 236.407 1104.45 236.407" stroke="#000000" stroke-width="1.33333" stroke-linejoin="round" stroke-miterlimit="10" fill="none" fill-rule="evenodd"/><path d="M940.938 275.34 1104.45 275.34" stroke="#000000" stroke-width="1.33333" stroke-linejoin="round" stroke-miterlimit="10" fill="none" fill-rule="evenodd"/><path d="M940.938 314.273 1104.45 314.273" stroke="#000000" stroke-width="1.33333" stroke-linejoin="round" stroke-miterlimit="10" fill="none" fill-rule="evenodd"/><path d="M941.605 157.873 941.605 353.873" stroke="#000000" stroke-width="1.33333" stroke-linejoin="round" stroke-miterlimit="10" fill="none" fill-rule="evenodd"/><path d="M1103.78 157.873 1103.78 353.873" stroke="#000000" stroke-width="1.33333" stroke-linejoin="round" stroke-miterlimit="10" fill="none" fill-rule="evenodd"/><path d="M940.938 158.54 1104.45 158.54" stroke="#000000" stroke-width="1.33333" stroke-linejoin="round" stroke-miterlimit="10" fill="none" fill-rule="evenodd"/><path d="M940.938 353.207 1104.45 353.207" stroke="#000000" stroke-width="1.33333" stroke-linejoin="round" stroke-miterlimit="10" fill="none" fill-rule="evenodd"/><text font-family="DengXian,DengXian_MSFontService,sans-serif" font-weight="400" font-size="24" transform="translate(962.634 185)">a<tspan x="53.7249" y="0">1</tspan><tspan x="107.783" y="0">1</tspan><tspan x="0" y="39">a</tspan><tspan x="53.7249" y="39">1</tspan><tspan x="107.783" y="39">2</tspan><tspan x="-0.916687" y="78">b</tspan><tspan x="53.7249" y="78">2</tspan><tspan x="107.783" y="78">0</tspan><tspan x="-0.916687" y="117">b</tspan><tspan x="53.7249" y="117">3</tspan><tspan x="107.783" y="117">0</tspan><tspan x="0" y="156">a</tspan><tspan x="53.7249" y="156">1</tspan><tspan x="107.783" y="156">0</tspan></text><rect x="929" y="228" width="187" height="55" stroke="#000000" stroke-width="2" stroke-miterlimit="8" stroke-dasharray="8 6" fill="none"/><path d="M0 0.333333-24.0001 0.333333-23.6667 0-23.6667 45.3111-24.0001 44.9777 6.03748 44.9777 6.03748 45.6444-24.3334 45.6444-24.3334-0.333333 0-0.333333ZM4.70415 41.3111 12.7041 45.3111 4.70415 49.3111Z" transform="matrix(1 -1.22465e-16 -1.22465e-16 -1 929.5 255.811)"/><path d="M167.605 470.604 221.663 470.604 221.663 509.537 167.605 509.537Z" fill="#FF0000" fill-rule="evenodd"/><path d="M221.663 470.604 275.721 470.604 275.721 509.537 221.663 509.537Z" fill="#FF0000" fill-rule="evenodd"/><path d="M275.721 470.604 329.779 470.604 329.779 509.537 275.721 509.537Z" fill="#FF0000" fill-rule="evenodd"/><path d="M221.663 431.004 221.663 627.004" stroke="#000000" stroke-width="1.33333" stroke-linejoin="round" stroke-miterlimit="10" fill="none" fill-rule="evenodd"/><path d="M275.721 431.004 275.721 627.004" stroke="#000000" stroke-width="1.33333" stroke-linejoin="round" stroke-miterlimit="10" fill="none" fill-rule="evenodd"/><path d="M166.938 470.604 330.446 470.604" stroke="#000000" stroke-width="1.33333" stroke-linejoin="round" stroke-miterlimit="10" fill="none" fill-rule="evenodd"/><path d="M166.938 509.537 330.446 509.537" stroke="#000000" stroke-width="1.33333" stroke-linejoin="round" stroke-miterlimit="10" fill="none" fill-rule="evenodd"/><path d="M166.938 548.471 330.446 548.471" stroke="#000000" stroke-width="1.33333" stroke-linejoin="round" stroke-miterlimit="10" fill="none" fill-rule="evenodd"/><path d="M166.938 587.404 330.446 587.404" stroke="#000000" stroke-width="1.33333" stroke-linejoin="round" stroke-miterlimit="10" fill="none" fill-rule="evenodd"/><path d="M167.605 431.004 167.605 627.004" stroke="#000000" stroke-width="1.33333" stroke-linejoin="round" stroke-miterlimit="10" fill="none" fill-rule="evenodd"/><path d="M329.779 431.004 329.779 627.004" stroke="#000000" stroke-width="1.33333" stroke-linejoin="round" stroke-miterlimit="10" fill="none" fill-rule="evenodd"/><path d="M166.938 431.671 330.446 431.671" stroke="#000000" stroke-width="1.33333" stroke-linejoin="round" stroke-miterlimit="10" fill="none" fill-rule="evenodd"/><path d="M166.938 626.337 330.446 626.337" stroke="#000000" stroke-width="1.33333" stroke-linejoin="round" stroke-miterlimit="10" fill="none" fill-rule="evenodd"/><text font-family="DengXian,DengXian_MSFontService,sans-serif" font-weight="400" font-size="24" transform="translate(188.634 458)">a<tspan x="53.7248" y="0">1</tspan><tspan x="107.783" y="0">1</tspan><tspan x="0" y="39">a</tspan><tspan x="53.7248" y="39">1</tspan><tspan x="107.783" y="39">2</tspan><tspan x="-0.916702" y="78">b</tspan><tspan x="53.7248" y="78">2</tspan><tspan x="107.783" y="78">0</tspan><tspan x="-0.916702" y="117">b</tspan><tspan x="53.7248" y="117">3</tspan><tspan x="107.783" y="117">0</tspan><tspan x="0" y="156">a</tspan><tspan x="53.7248" y="156">1</tspan><tspan x="107.783" y="156">0</tspan></text><rect x="155" y="539" width="187" height="55" stroke="#000000" stroke-width="2" stroke-miterlimit="8" stroke-dasharray="8 6" fill="none"/><path d="M0 0.333333-24.0001 0.333333-23.6667 0-23.6667 45.3111-24.0001 44.9777 6.03748 44.9777 6.03748 45.6444-24.3334 45.6444-24.3334-0.333333 0-0.333333ZM4.70415 41.3111 12.7041 45.3111 4.70415 49.3111Z" transform="matrix(1 -1.22465e-16 -1.22465e-16 -1 155.5 566.811)"/><path d="M142.5 512.5 152.735 530.843" stroke="#000000" stroke-width="0.666667" stroke-miterlimit="8" fill="none" fill-rule="evenodd"/><path d="M0 0 10.2351 17.1213" stroke="#000000" stroke-width="0.666667" stroke-miterlimit="8" fill="none" fill-rule="evenodd" transform="matrix(1 0 0 -1 142.5 529.621)"/><path d="M546.179 470.604 600.237 470.604 600.237 509.537 546.179 509.537Z" fill="#FF0000" fill-rule="evenodd"/><path d="M600.237 470.604 654.295 470.604 654.295 509.537 600.237 509.537Z" fill="#FF0000" fill-rule="evenodd"/><path d="M654.295 470.604 708.354 470.604 708.354 509.537 654.295 509.537Z" fill="#FF0000" fill-rule="evenodd"/><path d="M546.179 548.471 600.237 548.471 600.237 587.404 546.179 587.404Z" fill="#FF0000" fill-rule="evenodd"/><path d="M600.237 548.471 654.295 548.471 654.295 587.404 600.237 587.404Z" fill="#FF0000" fill-rule="evenodd"/><path d="M654.295 548.471 708.354 548.471 708.354 587.404 654.295 587.404Z" fill="#FF0000" fill-rule="evenodd"/><path d="M600.237 431.004 600.237 627.004" stroke="#000000" stroke-width="1.33333" stroke-linejoin="round" stroke-miterlimit="10" fill="none" fill-rule="evenodd"/><path d="M654.295 431.004 654.295 627.004" stroke="#000000" stroke-width="1.33333" stroke-linejoin="round" stroke-miterlimit="10" fill="none" fill-rule="evenodd"/><path d="M545.512 470.604 709.02 470.604" stroke="#000000" stroke-width="1.33333" stroke-linejoin="round" stroke-miterlimit="10" fill="none" fill-rule="evenodd"/><path d="M545.512 509.537 709.02 509.537" stroke="#000000" stroke-width="1.33333" stroke-linejoin="round" stroke-miterlimit="10" fill="none" fill-rule="evenodd"/><path d="M545.512 548.471 709.02 548.471" stroke="#000000" stroke-width="1.33333" stroke-linejoin="round" stroke-miterlimit="10" fill="none" fill-rule="evenodd"/><path d="M545.512 587.404 709.02 587.404" stroke="#000000" stroke-width="1.33333" stroke-linejoin="round" stroke-miterlimit="10" fill="none" fill-rule="evenodd"/><path d="M546.179 431.004 546.179 627.004" stroke="#000000" stroke-width="1.33333" stroke-linejoin="round" stroke-miterlimit="10" fill="none" fill-rule="evenodd"/><path d="M708.354 431.004 708.354 627.004" stroke="#000000" stroke-width="1.33333" stroke-linejoin="round" stroke-miterlimit="10" fill="none" fill-rule="evenodd"/><path d="M545.512 431.671 709.02 431.671" stroke="#000000" stroke-width="1.33333" stroke-linejoin="round" stroke-miterlimit="10" fill="none" fill-rule="evenodd"/><path d="M545.512 626.337 709.02 626.337" stroke="#000000" stroke-width="1.33333" stroke-linejoin="round" stroke-miterlimit="10" fill="none" fill-rule="evenodd"/><text font-family="DengXian,DengXian_MSFontService,sans-serif" font-weight="400" font-size="24" transform="translate(567.208 458)">a<tspan x="53.7249" y="0">1</tspan><tspan x="107.783" y="0">1</tspan><tspan x="0" y="39">a</tspan><tspan x="53.7249" y="39">1</tspan><tspan x="107.783" y="39">2</tspan><tspan x="-0.916687" y="78">b</tspan><tspan x="53.7249" y="78">2</tspan><tspan x="107.783" y="78">0</tspan><tspan x="-0.916687" y="117">b</tspan><tspan x="53.7249" y="117">3</tspan><tspan x="107.783" y="117">0</tspan><tspan x="0" y="156">a</tspan><tspan x="53.7249" y="156">1</tspan><tspan x="107.783" y="156">0</tspan></text><rect x="533" y="579" width="188" height="55" stroke="#000000" stroke-width="2" stroke-miterlimit="8" stroke-dasharray="8 6" fill="none"/><path d="M0 0.333333-24.0001 0.333333-23.6667 0-23.6667 45.3111-24.0001 44.9777 6.03748 44.9777 6.03748 45.6444-24.3334 45.6444-24.3334-0.333333 0-0.333333ZM4.70415 41.3111 12.7041 45.3111 4.70415 49.3111Z" transform="matrix(1 -1.22465e-16 -1.22465e-16 -1 533.5 606.811)"/><path d="M995.663 461.73 995.663 579.864" stroke="#000000" stroke-width="1.33333" stroke-linejoin="round" stroke-miterlimit="10" fill="none" fill-rule="evenodd"/><path d="M1049.72 461.73 1049.72 579.864" stroke="#000000" stroke-width="1.33333" stroke-linejoin="round" stroke-miterlimit="10" fill="none" fill-rule="evenodd"/><path d="M940.938 501.33 1104.45 501.33" stroke="#000000" stroke-width="1.33333" stroke-linejoin="round" stroke-miterlimit="10" fill="none" fill-rule="evenodd"/><path d="M940.938 540.264 1104.45 540.264" stroke="#000000" stroke-width="1.33333" stroke-linejoin="round" stroke-miterlimit="10" fill="none" fill-rule="evenodd"/><path d="M941.605 461.73 941.605 579.864" stroke="#000000" stroke-width="1.33333" stroke-linejoin="round" stroke-miterlimit="10" fill="none" fill-rule="evenodd"/><path d="M1103.78 461.73 1103.78 579.864" stroke="#000000" stroke-width="1.33333" stroke-linejoin="round" stroke-miterlimit="10" fill="none" fill-rule="evenodd"/><path d="M940.938 462.397 1104.45 462.397" stroke="#000000" stroke-width="1.33333" stroke-linejoin="round" stroke-miterlimit="10" fill="none" fill-rule="evenodd"/><path d="M940.938 579.197 1104.45 579.197" stroke="#000000" stroke-width="1.33333" stroke-linejoin="round" stroke-miterlimit="10" fill="none" fill-rule="evenodd"/><text font-family="DengXian,DengXian_MSFontService,sans-serif" font-weight="400" font-size="24" transform="translate(962.634 489)">a<tspan x="53.7249" y="0">1</tspan><tspan x="107.783" y="0">1</tspan><tspan x="-0.916687" y="39">b</tspan><tspan x="53.7249" y="39">2</tspan><tspan x="107.783" y="39">0</tspan><tspan x="0" y="78">a</tspan><tspan x="53.7249" y="78">1</tspan><tspan x="107.783" y="78">0</tspan></text><path d="M389.5 259.167 459.447 259.167 459.447 259.833 389.5 259.833ZM458.113 255.5 466.113 259.5 458.113 263.5Z"/><path d="M785.5 255.167 855.447 255.167 855.447 255.833 785.5 255.833ZM854.113 251.5 862.113 255.5 854.113 259.5Z"/><path d="M390.5 515.167 460.447 515.167 460.447 515.833 390.5 515.833ZM459.113 511.5 467.113 515.5 459.113 519.5Z"/><path d="M785.5 511.167 855.447 511.167 855.447 511.833 785.5 511.833ZM854.113 507.5 862.113 511.5 854.113 515.5Z"/></g></svg>