<svg width="1280" height="720" xmlns="http://www.w3.org/2000/svg" xmlns:xlink="http://www.w3.org/1999/xlink" overflow="hidden"><defs><clipPath id="clip0"><rect x="0" y="0" width="1280" height="720"/></clipPath></defs><g clip-path="url(#clip0)"><rect x="0" y="0" width="1280" height="720" fill="#FFFFFF"/><path d="M370.825 226.607 370.825 461.541" stroke="#000000" stroke-width="1.33333" stroke-linejoin="round" stroke-miterlimit="10" fill="none" fill-rule="evenodd"/><path d="M424.883 226.607 424.883 461.541" stroke="#000000" stroke-width="1.33333" stroke-linejoin="round" stroke-miterlimit="10" fill="none" fill-rule="evenodd"/><path d="M316.1 266.207 479.608 266.207" stroke="#000000" stroke-width="1.33333" stroke-linejoin="round" stroke-miterlimit="10" fill="none" fill-rule="evenodd"/><path d="M316.1 305.141 479.608 305.141" stroke="#000000" stroke-width="1.33333" stroke-linejoin="round" stroke-miterlimit="10" fill="none" fill-rule="evenodd"/><path d="M316.1 344.074 479.608 344.074" stroke="#000000" stroke-width="1.33333" stroke-linejoin="round" stroke-miterlimit="10" fill="none" fill-rule="evenodd"/><path d="M316.1 383.007 479.608 383.007" stroke="#000000" stroke-width="1.33333" stroke-linejoin="round" stroke-miterlimit="10" fill="none" fill-rule="evenodd"/><path d="M316.1 421.941 479.608 421.941" stroke="#000000" stroke-width="1.33333" stroke-linejoin="round" stroke-miterlimit="10" fill="none" fill-rule="evenodd"/><path d="M316.767 226.607 316.767 461.541" stroke="#000000" stroke-width="1.33333" stroke-linejoin="round" stroke-miterlimit="10" fill="none" fill-rule="evenodd"/><path d="M478.941 226.607 478.941 461.541" stroke="#000000" stroke-width="1.33333" stroke-linejoin="round" stroke-miterlimit="10" fill="none" fill-rule="evenodd"/><path d="M316.1 227.274 479.608 227.274" stroke="#000000" stroke-width="1.33333" stroke-linejoin="round" stroke-miterlimit="10" fill="none" fill-rule="evenodd"/><path d="M316.1 460.874 479.608 460.874" stroke="#000000" stroke-width="1.33333" stroke-linejoin="round" stroke-miterlimit="10" fill="none" fill-rule="evenodd"/><text font-family="DengXian,DengXian_MSFontService,sans-serif" font-weight="400" font-size="24" transform="translate(445.579 254)">1<tspan x="0" y="39">2</tspan><tspan x="0" y="78">4</tspan><tspan x="0" y="117">7</tspan><tspan x="0" y="156">8</tspan><tspan x="0" y="195">9</tspan></text><rect x="416" y="221" width="71" height="250" stroke="#000000" stroke-width="2" stroke-miterlimit="8" stroke-dasharray="8 6" fill="none"/><rect x="752" y="221" width="277" height="243" stroke="#000000" stroke-width="2" stroke-miterlimit="8" fill="none"/><text font-family="DengXian,DengXian_MSFontService,sans-serif" font-weight="400" font-size="24" transform="translate(870.769 257)">BST</text><path d="M868.5 294.5C868.5 284.559 876.783 276.5 887 276.5 897.217 276.5 905.5 284.559 905.5 294.5 905.5 304.441 897.217 312.5 887 312.5 876.783 312.5 868.5 304.441 868.5 294.5Z" stroke="#000000" stroke-width="1.33333" stroke-miterlimit="8" fill="#FFFFFF" fill-rule="evenodd"/><text font-family="DengXian,DengXian_MSFontService,sans-serif" font-weight="400" font-size="32" transform="translate(878.344 303)">7</text><path d="M825.5 348.5C825.5 338.559 833.783 330.5 844 330.5 854.217 330.5 862.5 338.559 862.5 348.5 862.5 358.441 854.217 366.5 844 366.5 833.783 366.5 825.5 358.441 825.5 348.5Z" stroke="#000000" stroke-width="1.33333" stroke-miterlimit="8" fill="#FFFFFF" fill-rule="evenodd"/><text font-family="DengXian,DengXian_MSFontService,sans-serif" font-weight="400" font-size="32" transform="translate(835.086 357)">2</text><path d="M917.5 348.5C917.5 338.559 925.783 330.5 936 330.5 946.217 330.5 954.5 338.559 954.5 348.5 954.5 358.441 946.217 366.5 936 366.5 925.783 366.5 917.5 358.441 917.5 348.5Z" stroke="#000000" stroke-width="1.33333" stroke-miterlimit="8" fill="#FFFFFF" fill-rule="evenodd"/><text font-family="DengXian,DengXian_MSFontService,sans-serif" font-weight="400" font-size="32" transform="translate(926.811 357)">9</text><path d="M801.5 402.5C801.5 392.559 809.783 384.5 820 384.5 830.217 384.5 838.5 392.559 838.5 402.5 838.5 412.441 830.217 420.5 820 420.5 809.783 420.5 801.5 412.441 801.5 402.5Z" stroke="#000000" stroke-width="1.33333" stroke-miterlimit="8" fill="#FFFFFF" fill-rule="evenodd"/><text font-family="DengXian,DengXian_MSFontService,sans-serif" font-weight="400" font-size="32" transform="translate(810.768 411)">1</text><path d="M848.5 402.5C848.5 392.559 856.783 384.5 867 384.5 877.217 384.5 885.5 392.559 885.5 402.5 885.5 412.441 877.217 420.5 867 420.5 856.783 420.5 848.5 412.441 848.5 402.5Z" stroke="#000000" stroke-width="1.33333" stroke-miterlimit="8" fill="#FFFFFF" fill-rule="evenodd"/><text font-family="DengXian,DengXian_MSFontService,sans-serif" font-weight="400" font-size="32" transform="translate(858.066 411)">4</text><path d="M895.5 402.5C895.5 392.559 903.783 384.5 914 384.5 924.217 384.5 932.5 392.559 932.5 402.5 932.5 412.441 924.217 420.5 914 420.5 903.783 420.5 895.5 412.441 895.5 402.5Z" stroke="#000000" stroke-width="1.33333" stroke-miterlimit="8" fill="#FFFFFF" fill-rule="evenodd"/><text font-family="DengXian,DengXian_MSFontService,sans-serif" font-weight="400" font-size="32" transform="translate(905.365 411)">8</text><path d="M0 0 29.1017 24.0244" stroke="#000000" stroke-width="1.33333" stroke-miterlimit="8" fill="none" fill-rule="evenodd" transform="matrix(-1 -8.74228e-08 -8.74228e-08 1 887.602 312.5)"/><path d="M0 0 24.3182 18.4569" stroke="#000000" stroke-width="1.33333" stroke-miterlimit="8" fill="none" fill-rule="evenodd" transform="matrix(-1 -8.74228e-08 -8.74228e-08 1 843.818 366.5)"/><path d="M0 0 21.4462 18.457" stroke="#000000" stroke-width="1.33333" stroke-miterlimit="8" fill="none" fill-rule="evenodd" transform="matrix(-1 -8.74228e-08 -8.74228e-08 1 935.946 366.5)"/><path d="M887.5 312.5 921.315 336.524" stroke="#000000" stroke-width="1.33333" stroke-miterlimit="8" fill="none" fill-rule="evenodd"/><path d="M844.5 366.5 867.481 384.957" stroke="#000000" stroke-width="1.33333" stroke-miterlimit="8" fill="none" fill-rule="evenodd"/><text font-family="DengXian,DengXian_MSFontService,sans-serif" font-weight="400" font-size="24" transform="translate(329.178 215)">F1<tspan x="55.068" y="0">F2</tspan><tspan x="110.136" y="0">F3</tspan><tspan font-size="27" x="229.947" y="-110">列式存储结构</tspan></text><path d="M8.01863e-07-1 124.262-0.9999 124.262 1.0001-8.01863e-07 1ZM122.929-3.9999 130.929 0.000104987 122.929 4.0001Z" transform="matrix(1 0 0 -1 575 330)"/></g></svg>