<svg width="1280" height="720" xmlns="http://www.w3.org/2000/svg" xmlns:xlink="http://www.w3.org/1999/xlink" overflow="hidden"><defs><clipPath id="clip0"><rect x="0" y="0" width="1280" height="720"/></clipPath></defs><g clip-path="url(#clip0)"><rect x="0" y="0" width="1280" height="720" fill="#FFFFFF"/>
<path d="M257.507 328.796 257.507 446.93" stroke="#000000" stroke-width="1.33333" stroke-linejoin="round" stroke-miterlimit="10" fill="none" fill-rule="evenodd"/>
<path d="M311.565 328.796 311.565 446.93" stroke="#000000" stroke-width="1.33333" stroke-linejoin="round" stroke-miterlimit="10" fill="none" fill-rule="evenodd"/>
<path d="M202.782 368.396 366.29 368.396" stroke="#000000" stroke-width="1.33333" stroke-linejoin="round" stroke-miterlimit="10" fill="none" fill-rule="evenodd"/>
<path d="M202.782 407.33 366.29 407.33" stroke="#000000" stroke-width="1.33333" stroke-linejoin="round" stroke-miterlimit="10" fill="none" fill-rule="evenodd"/>
<path d="M203.449 328.796 203.449 446.93" stroke="#000000" stroke-width="1.33333" stroke-linejoin="round" stroke-miterlimit="10" fill="none" fill-rule="evenodd"/>
<path d="M365.623 328.796 365.623 446.93" stroke="#000000" stroke-width="1.33333" stroke-linejoin="round" stroke-miterlimit="10" fill="none" fill-rule="evenodd"/>
<path d="M202.782 329.463 366.29 329.463" stroke="#000000" stroke-width="1.33333" stroke-linejoin="round" stroke-miterlimit="10" fill="none" fill-rule="evenodd"/>
<path d="M202.782 446.263 366.29 446.263" stroke="#000000" stroke-width="1.33333" stroke-linejoin="round" stroke-miterlimit="10" fill="none" fill-rule="evenodd"/><text font-family="DengXian,DengXian_MSFontService,sans-serif" font-weight="400" font-size="24" transform="translate(224.478 356)">a
<tspan x="54.0582" y="0">a</tspan>
<tspan x="107.783" y="0">1</tspan>
<tspan x="-0.916702" y="39">b</tspan>
<tspan x="53.1415" y="39">b</tspan>
<tspan x="107.783" y="39">0</tspan>
<tspan x="0.583298" y="78">c</tspan>
<tspan x="54.6415" y="78">c</tspan>
<tspan x="107.783" y="78">0</tspan></text>
<path d="M257.731 111.199 257.731 190.399" stroke="#000000" stroke-width="1.33333" stroke-linejoin="round" stroke-miterlimit="10" fill="none" fill-rule="evenodd"/>
<path d="M311.789 111.199 311.789 190.399" stroke="#000000" stroke-width="1.33333" stroke-linejoin="round" stroke-miterlimit="10" fill="none" fill-rule="evenodd"/>
<path d="M203.007 150.799 366.514 150.799" stroke="#000000" stroke-width="1.33333" stroke-linejoin="round" stroke-miterlimit="10" fill="none" fill-rule="evenodd"/>
<path d="M203.673 111.199 203.673 190.399" stroke="#000000" stroke-width="1.33333" stroke-linejoin="round" stroke-miterlimit="10" fill="none" fill-rule="evenodd"/>
<path d="M365.848 111.199 365.848 190.399" stroke="#000000" stroke-width="1.33333" stroke-linejoin="round" stroke-miterlimit="10" fill="none" fill-rule="evenodd"/>
<path d="M203.007 111.866 366.514 111.866" stroke="#000000" stroke-width="1.33333" stroke-linejoin="round" stroke-miterlimit="10" fill="none" fill-rule="evenodd"/>
<path d="M203.007 189.733 366.514 189.733" stroke="#000000" stroke-width="1.33333" stroke-linejoin="round" stroke-miterlimit="10" fill="none" fill-rule="evenodd"/><text font-family="DengXian,DengXian_MSFontService,sans-serif" font-weight="400" font-size="24" transform="translate(224.702 139)">a
<tspan x="53.7248" y="0">1</tspan>
<tspan x="107.783" y="0">1</tspan>
<tspan x="0.583313" y="39">c</tspan>
<tspan x="53.7248" y="39">1</tspan>
<tspan x="107.783" y="39">2</tspan></text>
<path d="M543.668 536.547 543.668 654.681" stroke="#000000" stroke-width="1.33333" stroke-linejoin="round" stroke-miterlimit="10" fill="none" fill-rule="evenodd"/>
<path d="M597.726 536.547 597.726 654.681" stroke="#000000" stroke-width="1.33333" stroke-linejoin="round" stroke-miterlimit="10" fill="none" fill-rule="evenodd"/>
<path d="M488.943 576.147 652.451 576.147" stroke="#000000" stroke-width="1.33333" stroke-linejoin="round" stroke-miterlimit="10" fill="none" fill-rule="evenodd"/>
<path d="M488.943 615.081 652.451 615.081" stroke="#000000" stroke-width="1.33333" stroke-linejoin="round" stroke-miterlimit="10" fill="none" fill-rule="evenodd"/>
<path d="M489.61 536.547 489.61 654.681" stroke="#000000" stroke-width="1.33333" stroke-linejoin="round" stroke-miterlimit="10" fill="none" fill-rule="evenodd"/>
<path d="M651.784 536.547 651.784 654.681" stroke="#000000" stroke-width="1.33333" stroke-linejoin="round" stroke-miterlimit="10" fill="none" fill-rule="evenodd"/>
<path d="M488.943 537.214 652.451 537.214" stroke="#000000" stroke-width="1.33333" stroke-linejoin="round" stroke-miterlimit="10" fill="none" fill-rule="evenodd"/>
<path d="M488.943 654.014 652.451 654.014" stroke="#000000" stroke-width="1.33333" stroke-linejoin="round" stroke-miterlimit="10" fill="none" fill-rule="evenodd"/><text font-family="DengXian,DengXian_MSFontService,sans-serif" font-weight="400" font-size="24" transform="translate(510.639 564)">a
<tspan x="53.7248" y="0">1</tspan>
<tspan x="107.783" y="0">1</tspan>
<tspan x="-0.916718" y="39">b</tspan>
<tspan x="53.7248" y="39">2</tspan>
<tspan x="107.783" y="39">0</tspan>
<tspan x="0" y="78">c</tspan>
<tspan x="53.7248" y="78">1</tspan>
<tspan x="107.783" y="78">0</tspan>
<tspan x="-293.242" y="-464">id</tspan>
<tspan x="-238.174" y="-464">F2</tspan>
<tspan x="-183.106" y="-464">F3</tspan>
<tspan x="-293.466" y="-247">id</tspan>
<tspan x="-238.398" y="-247">F2</tspan>
<tspan x="-183.33" y="-247">F3</tspan>
<tspan x="-9.95078" y="-39">id2</tspan>
<tspan x="31.3279" y="-39">name</tspan>
<tspan x="102.58" y="-39">val</tspan></text>
<path d="M211.961 536.626 211.961 654.76" stroke="#000000" stroke-width="1.33333" stroke-linejoin="round" stroke-miterlimit="10" fill="none" fill-rule="evenodd"/>
<path d="M266.019 536.626 266.019 654.76" stroke="#000000" stroke-width="1.33333" stroke-linejoin="round" stroke-miterlimit="10" fill="none" fill-rule="evenodd"/>
<path d="M157.236 576.226 320.744 576.226" stroke="#000000" stroke-width="1.33333" stroke-linejoin="round" stroke-miterlimit="10" fill="none" fill-rule="evenodd"/>
<path d="M157.236 615.16 320.744 615.16" stroke="#000000" stroke-width="1.33333" stroke-linejoin="round" stroke-miterlimit="10" fill="none" fill-rule="evenodd"/>
<path d="M157.902 536.626 157.902 654.76" stroke="#000000" stroke-width="1.33333" stroke-linejoin="round" stroke-miterlimit="10" fill="none" fill-rule="evenodd"/>
<path d="M320.077 536.626 320.077 654.76" stroke="#000000" stroke-width="1.33333" stroke-linejoin="round" stroke-miterlimit="10" fill="none" fill-rule="evenodd"/>
<path d="M157.236 537.293 320.744 537.293" stroke="#000000" stroke-width="1.33333" stroke-linejoin="round" stroke-miterlimit="10" fill="none" fill-rule="evenodd"/>
<path d="M157.236 654.093 320.744 654.093" stroke="#000000" stroke-width="1.33333" stroke-linejoin="round" stroke-miterlimit="10" fill="none" fill-rule="evenodd"/><text font-family="DengXian,DengXian_MSFontService,sans-serif" font-weight="400" font-size="24" transform="translate(178.932 564)">a
<tspan x="54.0582" y="0">a</tspan>
<tspan x="107.783" y="0">1</tspan>
<tspan x="-0.916687" y="39">b</tspan>
<tspan x="53.1415" y="39">b</tspan>
<tspan x="107.783" y="39">0</tspan>
<tspan x="0.583313" y="78">c</tspan>
<tspan x="54.6415" y="78">c</tspan>
<tspan x="107.783" y="78">0</tspan>
<tspan x="-7.30499" y="-39">id</tspan>
<tspan x="47.763" y="-39">F2</tspan>
<tspan x="102.831" y="-39">F3</tspan></text>
<path d="M227.833 211.5 227.833 286.401 227.167 286.401 227.167 211.5ZM231.5 285.068 227.5 293.068 223.5 285.068Z"/><text font-family="DengXian,DengXian_MSFontService,sans-serif" font-weight="400" font-size="24" transform="translate(245.727 254)">垂直扩展
<tspan x="96" y="0">union</tspan></text>
<path d="M337.5 591.167 451.367 591.167 451.367 591.833 337.5 591.833ZM450.033 587.5 458.033 591.5 450.033 595.5Z"/><text font-family="DengXian,DengXian_MSFontService,sans-serif" font-weight="400" font-size="24" transform="translate(331.155 564)">水平扩展</text>
<path d="M919.128 161.309 919.128 357.31" stroke="#000000" stroke-width="1.33333" stroke-linejoin="round" stroke-miterlimit="10" fill="none" fill-rule="evenodd"/>
<path d="M973.186 161.309 973.186 357.31" stroke="#000000" stroke-width="1.33333" stroke-linejoin="round" stroke-miterlimit="10" fill="none" fill-rule="evenodd"/>
<path d="M864.403 200.91 1027.91 200.91" stroke="#000000" stroke-width="1.33333" stroke-linejoin="round" stroke-miterlimit="10" fill="none" fill-rule="evenodd"/>
<path d="M864.403 239.843 1027.91 239.843" stroke="#000000" stroke-width="1.33333" stroke-linejoin="round" stroke-miterlimit="10" fill="none" fill-rule="evenodd"/>
<path d="M864.403 278.776 1027.91 278.776" stroke="#000000" stroke-width="1.33333" stroke-linejoin="round" stroke-miterlimit="10" fill="none" fill-rule="evenodd"/>
<path d="M864.403 317.709 1027.91 317.709" stroke="#000000" stroke-width="1.33333" stroke-linejoin="round" stroke-miterlimit="10" fill="none" fill-rule="evenodd"/>
<path d="M865.069 161.309 865.069 357.31" stroke="#000000" stroke-width="1.33333" stroke-linejoin="round" stroke-miterlimit="10" fill="none" fill-rule="evenodd"/>
<path d="M1027.24 161.309 1027.24 357.31" stroke="#000000" stroke-width="1.33333" stroke-linejoin="round" stroke-miterlimit="10" fill="none" fill-rule="evenodd"/>
<path d="M864.403 161.976 1027.91 161.976" stroke="#000000" stroke-width="1.33333" stroke-linejoin="round" stroke-miterlimit="10" fill="none" fill-rule="evenodd"/>
<path d="M864.403 356.643 1027.91 356.643" stroke="#000000" stroke-width="1.33333" stroke-linejoin="round" stroke-miterlimit="10" fill="none" fill-rule="evenodd"/><text font-family="DengXian,DengXian_MSFontService,sans-serif" font-weight="400" font-size="24" transform="translate(886.098 189)">a
<tspan x="53.7249" y="0">1</tspan>
<tspan x="107.783" y="0">1</tspan>
<tspan x="0.583313" y="39">c</tspan>
<tspan x="53.7249" y="39">1</tspan>
<tspan x="107.783" y="39">2</tspan>
<tspan x="0" y="78">a</tspan>
<tspan x="54.0582" y="78">a</tspan>
<tspan x="107.783" y="78">1</tspan>
<tspan x="-0.916687" y="117">b</tspan>
<tspan x="53.1415" y="117">b</tspan>
<tspan x="107.783" y="117">0</tspan>
<tspan x="0.583313" y="156">c</tspan>
<tspan x="54.6415" y="156">c</tspan>
<tspan x="107.783" y="156">0</tspan>
<tspan x="-7.30493" y="-39">id</tspan>
<tspan x="47.7631" y="-39">F2</tspan>
<tspan x="102.831" y="-39">F3</tspan></text>
<path d="M852.192 530.859 852.192 648.993" stroke="#000000" stroke-width="1.33333" stroke-linejoin="round" stroke-miterlimit="10" fill="none" fill-rule="evenodd"/>
<path d="M905.425 530.859 905.425 648.993" stroke="#000000" stroke-width="1.33333" stroke-linejoin="round" stroke-miterlimit="10" fill="none" fill-rule="evenodd"/>
<path d="M958.657 530.859 958.657 648.993" stroke="#000000" stroke-width="1.33333" stroke-linejoin="round" stroke-miterlimit="10" fill="none" fill-rule="evenodd"/>
<path d="M1011.89 530.859 1011.89 648.993" stroke="#000000" stroke-width="1.33333" stroke-linejoin="round" stroke-miterlimit="10" fill="none" fill-rule="evenodd"/>
<path d="M1065.12 530.859 1065.12 648.993" stroke="#000000" stroke-width="1.33333" stroke-linejoin="round" stroke-miterlimit="10" fill="none" fill-rule="evenodd"/>
<path d="M798.292 570.46 1119.02 570.46" stroke="#000000" stroke-width="1.33333" stroke-linejoin="round" stroke-miterlimit="10" fill="none" fill-rule="evenodd"/>
<path d="M798.292 609.393 1119.02 609.393" stroke="#000000" stroke-width="1.33333" stroke-linejoin="round" stroke-miterlimit="10" fill="none" fill-rule="evenodd"/>
<path d="M798.959 530.859 798.959 648.993" stroke="#000000" stroke-width="1.33333" stroke-linejoin="round" stroke-miterlimit="10" fill="none" fill-rule="evenodd"/>
<path d="M1118.36 530.859 1118.36 648.993" stroke="#000000" stroke-width="1.33333" stroke-linejoin="round" stroke-miterlimit="10" fill="none" fill-rule="evenodd"/>
<path d="M798.292 531.526 1119.02 531.526" stroke="#000000" stroke-width="1.33333" stroke-linejoin="round" stroke-miterlimit="10" fill="none" fill-rule="evenodd"/>
<path d="M798.292 648.326 1119.02 648.326" stroke="#000000" stroke-width="1.33333" stroke-linejoin="round" stroke-miterlimit="10" fill="none" fill-rule="evenodd"/><text font-family="DengXian,DengXian_MSFontService,sans-serif" font-weight="400" font-size="24" transform="translate(819.576 558)">a
<tspan x="53.2327" y="0">a</tspan>
<tspan x="106.132" y="0">1</tspan>
<tspan x="159.698" y="0">a</tspan>
<tspan x="212.598" y="0">1</tspan>
<tspan x="265.83" y="0">1</tspan>
<tspan x="-0.916687" y="39">b</tspan>
<tspan x="52.316" y="39">b</tspan>
<tspan x="106.132" y="39">0</tspan>
<tspan x="158.782" y="39">b</tspan>
<tspan x="212.598" y="39">2</tspan>
<tspan x="265.83" y="39">0</tspan>
<tspan x="0.583313" y="78">c</tspan>
<tspan x="53.816" y="78">c</tspan>
<tspan x="106.132" y="78">0</tspan>
<tspan x="159.698" y="78">c</tspan>
<tspan x="212.598" y="78">1</tspan>
<tspan x="265.83" y="78">0</tspan>
<tspan x="-6.89221" y="-38">id</tspan>
<tspan x="48.1758" y="-38">F2</tspan>
<tspan x="103.244" y="-38">F3</tspan>
<tspan x="149.714" y="-38">id2</tspan>
<tspan x="190.73" y="-38">name</tspan>
<tspan x="262.018" y="-38">val</tspan>
<tspan font-size="27" x="-280.908" y="-490">数据集扩展</tspan></text>
<path d="M683.5 591.167 766.01 591.167 766.01 591.833 683.5 591.833ZM764.676 587.5 772.676 591.5 764.676 595.5Z"/>
<path d="M491.5 251.167 743.745 251.167 743.745 251.833 491.5 251.833ZM742.412 247.5 750.412 251.5 742.412 255.5Z"/></g></svg>