<svg width="1280" height="720" xmlns="http://www.w3.org/2000/svg" xmlns:xlink="http://www.w3.org/1999/xlink" overflow="hidden"><defs><clipPath id="clip0"><rect x="0" y="0" width="1280" height="720"/></clipPath></defs><g clip-path="url(#clip0)"><rect x="0" y="0" width="1280" height="720" fill="#FFFFFF"/><path d="M220.063 143.184 220.063 339.184" stroke="#000000" stroke-width="1.33333" stroke-linejoin="round" stroke-miterlimit="10" fill="none" fill-rule="evenodd"/><path d="M274.121 143.184 274.121 339.184" stroke="#000000" stroke-width="1.33333" stroke-linejoin="round" stroke-miterlimit="10" fill="none" fill-rule="evenodd"/><path d="M165.338 182.784 328.846 182.784" stroke="#000000" stroke-width="1.33333" stroke-linejoin="round" stroke-miterlimit="10" fill="none" fill-rule="evenodd"/><path d="M165.338 221.717 328.846 221.717" stroke="#000000" stroke-width="1.33333" stroke-linejoin="round" stroke-miterlimit="10" fill="none" fill-rule="evenodd"/><path d="M165.338 260.651 328.846 260.651" stroke="#000000" stroke-width="1.33333" stroke-linejoin="round" stroke-miterlimit="10" fill="none" fill-rule="evenodd"/><path d="M165.338 299.584 328.846 299.584" stroke="#000000" stroke-width="1.33333" stroke-linejoin="round" stroke-miterlimit="10" fill="none" fill-rule="evenodd"/><path d="M166.005 143.184 166.005 339.184" stroke="#000000" stroke-width="1.33333" stroke-linejoin="round" stroke-miterlimit="10" fill="none" fill-rule="evenodd"/><path d="M328.179 143.184 328.179 339.184" stroke="#000000" stroke-width="1.33333" stroke-linejoin="round" stroke-miterlimit="10" fill="none" fill-rule="evenodd"/><path d="M165.338 143.851 328.846 143.851" stroke="#000000" stroke-width="1.33333" stroke-linejoin="round" stroke-miterlimit="10" fill="none" fill-rule="evenodd"/><path d="M165.338 338.517 328.846 338.517" stroke="#000000" stroke-width="1.33333" stroke-linejoin="round" stroke-miterlimit="10" fill="none" fill-rule="evenodd"/><text font-family="DengXian,DengXian_MSFontService,sans-serif" font-weight="400" font-size="24" transform="translate(187.034 171)">a<tspan x="53.7248" y="0">1</tspan><tspan x="107.783" y="0">1</tspan><tspan x="-0.916687" y="39">d</tspan><tspan x="53.7248" y="39">1</tspan><tspan x="107.783" y="39">2</tspan><tspan x="-0.916687" y="78">b</tspan><tspan x="53.7248" y="78">2</tspan><tspan x="107.783" y="78">0</tspan><tspan x="-0.916687" y="116">b</tspan><tspan x="53.7248" y="116">3</tspan><tspan x="107.783" y="116">0</tspan><tspan x="0.583313" y="155">c</tspan><tspan x="53.7248" y="155">1</tspan><tspan x="107.783" y="155">0</tspan><tspan font-size="27" x="288.785" y="-103">行间过滤</tspan><tspan font-size="27" x="395.452" y="-103">(</tspan><tspan font-size="27" x="403.285" y="-103">all_each</tspan><tspan font-size="27" x="500.619" y="-103">on id</tspan><tspan font-size="27" x="559.285" y="-103">!=_id</tspan><tspan font-size="27" x="616.952" y="-103">)</tspan></text><path d="M611.384 181.728 611.384 338.794" stroke="#000000" stroke-width="1.33333" stroke-linejoin="round" stroke-miterlimit="10" fill="none" fill-rule="evenodd"/><path d="M665.442 181.728 665.442 338.794" stroke="#000000" stroke-width="1.33333" stroke-linejoin="round" stroke-miterlimit="10" fill="none" fill-rule="evenodd"/><path d="M556.659 221.328 720.167 221.328" stroke="#000000" stroke-width="1.33333" stroke-linejoin="round" stroke-miterlimit="10" fill="none" fill-rule="evenodd"/><path d="M556.659 260.261 720.167 260.261" stroke="#000000" stroke-width="1.33333" stroke-linejoin="round" stroke-miterlimit="10" fill="none" fill-rule="evenodd"/><path d="M556.659 299.194 720.167 299.194" stroke="#000000" stroke-width="1.33333" stroke-linejoin="round" stroke-miterlimit="10" fill="none" fill-rule="evenodd"/><path d="M557.326 181.728 557.326 338.794" stroke="#000000" stroke-width="1.33333" stroke-linejoin="round" stroke-miterlimit="10" fill="none" fill-rule="evenodd"/><path d="M719.5 181.728 719.5 338.794" stroke="#000000" stroke-width="1.33333" stroke-linejoin="round" stroke-miterlimit="10" fill="none" fill-rule="evenodd"/><path d="M556.659 182.394 720.167 182.394" stroke="#000000" stroke-width="1.33333" stroke-linejoin="round" stroke-miterlimit="10" fill="none" fill-rule="evenodd"/><path d="M556.659 338.128 720.167 338.128" stroke="#000000" stroke-width="1.33333" stroke-linejoin="round" stroke-miterlimit="10" fill="none" fill-rule="evenodd"/><text font-family="DengXian,DengXian_MSFontService,sans-serif" font-weight="400" font-size="24" transform="translate(577.438 209)">d<tspan x="54.6415" y="0">1</tspan><tspan x="108.7" y="0">2</tspan><tspan x="0" y="39">b</tspan><tspan x="54.6415" y="39">2</tspan><tspan x="108.7" y="39">0</tspan><tspan x="0" y="78">b</tspan><tspan x="54.6415" y="78">3</tspan><tspan x="108.7" y="78">0</tspan><tspan x="1.5" y="117">c</tspan><tspan x="54.6415" y="117">1</tspan><tspan x="108.7" y="117">0</tspan></text><path d="M611.384 120.379 611.384 160.645" stroke="#000000" stroke-width="1.33333" stroke-linejoin="round" stroke-miterlimit="10" fill="none" fill-rule="evenodd"/><path d="M665.442 120.379 665.442 160.645" stroke="#000000" stroke-width="1.33333" stroke-linejoin="round" stroke-miterlimit="10" fill="none" fill-rule="evenodd"/><path d="M557.326 120.379 557.326 160.645" stroke="#000000" stroke-width="1.33333" stroke-linejoin="round" stroke-miterlimit="10" fill="none" fill-rule="evenodd"/><path d="M719.5 120.379 719.5 160.645" stroke="#000000" stroke-width="1.33333" stroke-linejoin="round" stroke-miterlimit="10" fill="none" fill-rule="evenodd"/><path d="M556.659 121.045 720.167 121.045" stroke="#000000" stroke-width="1.33333" stroke-linejoin="round" stroke-miterlimit="10" fill="none" fill-rule="evenodd"/><path d="M556.659 159.979 720.167 159.979" stroke="#000000" stroke-width="1.33333" stroke-linejoin="round" stroke-miterlimit="10" fill="none" fill-rule="evenodd"/><text font-family="DengXian,DengXian_MSFontService,sans-serif" font-weight="400" font-size="24" transform="translate(578.355 148)">a<tspan x="53.7249" y="0">1</tspan><tspan x="107.783" y="0">1</tspan></text><rect x="545" y="170" width="187" height="60" stroke="#000000" stroke-width="2" stroke-miterlimit="8" stroke-dasharray="8 6" fill="none"/><path d="M0 0.333333-24 0.333333-23.6667 0-23.6667 59.5233-24 59.1899 6.03748 59.1899 6.03748 59.8566-24.3333 59.8566-24.3333-0.333333 0-0.333333ZM4.70415 55.5233 12.7041 59.5233 4.70415 63.5233Z" transform="matrix(1 -1.22465e-16 -1.22465e-16 -1 545.5 201.023)"/><path d="M980.829 234.758 980.829 352.892" stroke="#000000" stroke-width="1.33333" stroke-linejoin="round" stroke-miterlimit="10" fill="none" fill-rule="evenodd"/><path d="M1034.89 234.758 1034.89 352.892" stroke="#000000" stroke-width="1.33333" stroke-linejoin="round" stroke-miterlimit="10" fill="none" fill-rule="evenodd"/><path d="M926.104 274.358 1089.61 274.358" stroke="#000000" stroke-width="1.33333" stroke-linejoin="round" stroke-miterlimit="10" fill="none" fill-rule="evenodd"/><path d="M926.104 313.292 1089.61 313.292" stroke="#000000" stroke-width="1.33333" stroke-linejoin="round" stroke-miterlimit="10" fill="none" fill-rule="evenodd"/><path d="M926.771 234.758 926.771 352.892" stroke="#000000" stroke-width="1.33333" stroke-linejoin="round" stroke-miterlimit="10" fill="none" fill-rule="evenodd"/><path d="M1088.94 234.758 1088.94 352.892" stroke="#000000" stroke-width="1.33333" stroke-linejoin="round" stroke-miterlimit="10" fill="none" fill-rule="evenodd"/><path d="M926.104 235.425 1089.61 235.425" stroke="#000000" stroke-width="1.33333" stroke-linejoin="round" stroke-miterlimit="10" fill="none" fill-rule="evenodd"/><path d="M926.104 352.225 1089.61 352.225" stroke="#000000" stroke-width="1.33333" stroke-linejoin="round" stroke-miterlimit="10" fill="none" fill-rule="evenodd"/><text font-family="DengXian,DengXian_MSFontService,sans-serif" font-weight="400" font-size="24" transform="translate(946.883 262)">b<tspan x="54.6415" y="0">2</tspan><tspan x="108.7" y="0">0</tspan><tspan x="0" y="39">b</tspan><tspan x="54.6415" y="39">3</tspan><tspan x="108.7" y="39">0</tspan><tspan x="1.5" y="78">c</tspan><tspan x="54.6415" y="78">1</tspan><tspan x="108.7" y="78">0</tspan></text><path d="M980.829 104.409 980.829 183.609" stroke="#000000" stroke-width="1.33333" stroke-linejoin="round" stroke-miterlimit="10" fill="none" fill-rule="evenodd"/><path d="M1034.89 104.409 1034.89 183.609" stroke="#000000" stroke-width="1.33333" stroke-linejoin="round" stroke-miterlimit="10" fill="none" fill-rule="evenodd"/><path d="M926.104 144.009 1089.61 144.009" stroke="#000000" stroke-width="1.33333" stroke-linejoin="round" stroke-miterlimit="10" fill="none" fill-rule="evenodd"/><path d="M926.771 104.409 926.771 183.609" stroke="#000000" stroke-width="1.33333" stroke-linejoin="round" stroke-miterlimit="10" fill="none" fill-rule="evenodd"/><path d="M1088.94 104.409 1088.94 183.609" stroke="#000000" stroke-width="1.33333" stroke-linejoin="round" stroke-miterlimit="10" fill="none" fill-rule="evenodd"/><path d="M926.104 105.076 1089.61 105.076" stroke="#000000" stroke-width="1.33333" stroke-linejoin="round" stroke-miterlimit="10" fill="none" fill-rule="evenodd"/><path d="M926.104 182.942 1089.61 182.942" stroke="#000000" stroke-width="1.33333" stroke-linejoin="round" stroke-miterlimit="10" fill="none" fill-rule="evenodd"/><text font-family="DengXian,DengXian_MSFontService,sans-serif" font-weight="400" font-size="24" transform="translate(947.8 132)">a<tspan x="53.7249" y="0">1</tspan><tspan x="107.783" y="0">1</tspan><tspan x="-0.916687" y="39">d</tspan><tspan x="53.7249" y="39">1</tspan><tspan x="107.783" y="39">2</tspan></text><rect x="914" y="223" width="188" height="60" stroke="#000000" stroke-width="2" stroke-miterlimit="8" stroke-dasharray="8 6" fill="none"/><path d="M0 0.333333-24 0.333333-23.6667 0-23.6667 127.184-23.9975 126.851 6.13393 127.074 6.12899 127.741-24.3333 127.515-24.3333-0.333333 0-0.333333ZM5.48653 123.24 12.704 128.523 4.14733 131.128Z" transform="matrix(1 -1.22465e-16 -1.22465e-16 -1 914.5 254.023)"/><path d="M0 0.333333-24 0.333333-23.6667 0-23.6667 91.3624-24.001 91.0291 3.57957 90.9487 3.58151 91.6153-24.3333 91.6967-24.3333-0.333333 0-0.333333ZM2.00837 87.3697 10.2351 90.8799 2.49089 95.3551Z" transform="matrix(1 -1.22465e-16 -1.22465e-16 -1 914.5 253.38)"/><path d="M217.97 573.851 217.97 653.051" stroke="#000000" stroke-width="1.33333" stroke-linejoin="round" stroke-miterlimit="10" fill="none" fill-rule="evenodd"/><path d="M272.028 573.851 272.028 653.051" stroke="#000000" stroke-width="1.33333" stroke-linejoin="round" stroke-miterlimit="10" fill="none" fill-rule="evenodd"/><path d="M163.245 613.451 326.753 613.451" stroke="#000000" stroke-width="1.33333" stroke-linejoin="round" stroke-miterlimit="10" fill="none" fill-rule="evenodd"/><path d="M163.912 573.851 163.912 653.051" stroke="#000000" stroke-width="1.33333" stroke-linejoin="round" stroke-miterlimit="10" fill="none" fill-rule="evenodd"/><path d="M326.086 573.851 326.086 653.051" stroke="#000000" stroke-width="1.33333" stroke-linejoin="round" stroke-miterlimit="10" fill="none" fill-rule="evenodd"/><path d="M163.245 574.517 326.753 574.517" stroke="#000000" stroke-width="1.33333" stroke-linejoin="round" stroke-miterlimit="10" fill="none" fill-rule="evenodd"/><path d="M163.245 652.384 326.753 652.384" stroke="#000000" stroke-width="1.33333" stroke-linejoin="round" stroke-miterlimit="10" fill="none" fill-rule="evenodd"/><text font-family="DengXian,DengXian_MSFontService,sans-serif" font-weight="400" font-size="24" transform="translate(184.024 601)">b<tspan x="54.6415" y="0">3</tspan><tspan x="108.7" y="0">0</tspan><tspan x="1.5" y="39">c</tspan><tspan x="54.6415" y="39">1</tspan><tspan x="108.7" y="39">0</tspan></text><path d="M217.97 396.502 217.97 514.635" stroke="#000000" stroke-width="1.33333" stroke-linejoin="round" stroke-miterlimit="10" fill="none" fill-rule="evenodd"/><path d="M272.028 396.502 272.028 514.635" stroke="#000000" stroke-width="1.33333" stroke-linejoin="round" stroke-miterlimit="10" fill="none" fill-rule="evenodd"/><path d="M163.245 436.102 326.753 436.102" stroke="#000000" stroke-width="1.33333" stroke-linejoin="round" stroke-miterlimit="10" fill="none" fill-rule="evenodd"/><path d="M163.245 475.035 326.753 475.035" stroke="#000000" stroke-width="1.33333" stroke-linejoin="round" stroke-miterlimit="10" fill="none" fill-rule="evenodd"/><path d="M163.912 396.502 163.912 514.635" stroke="#000000" stroke-width="1.33333" stroke-linejoin="round" stroke-miterlimit="10" fill="none" fill-rule="evenodd"/><path d="M326.086 396.502 326.086 514.635" stroke="#000000" stroke-width="1.33333" stroke-linejoin="round" stroke-miterlimit="10" fill="none" fill-rule="evenodd"/><path d="M163.245 397.168 326.753 397.168" stroke="#000000" stroke-width="1.33333" stroke-linejoin="round" stroke-miterlimit="10" fill="none" fill-rule="evenodd"/><path d="M163.245 513.968 326.753 513.968" stroke="#000000" stroke-width="1.33333" stroke-linejoin="round" stroke-miterlimit="10" fill="none" fill-rule="evenodd"/><text font-family="DengXian,DengXian_MSFontService,sans-serif" font-weight="400" font-size="24" transform="translate(184.941 424)">a<tspan x="53.7248" y="0">1</tspan><tspan x="107.783" y="0">1</tspan><tspan x="-0.916687" y="39">d</tspan><tspan x="53.7248" y="39">1</tspan><tspan x="107.783" y="39">2</tspan><tspan x="-0.916687" y="78">b</tspan><tspan x="53.7248" y="78">2</tspan><tspan x="107.783" y="78">0</tspan></text><rect x="151" y="563" width="188" height="60" stroke="#000000" stroke-width="2" stroke-miterlimit="8" stroke-dasharray="8 6" fill="none"/><path d="M0 0.333333-24 0.333333-23.6667 0-23.6667 137.59-24 137.257 6.03748 137.257 6.03748 137.923-24.3334 137.923-24.3334-0.333333 0-0.333333ZM4.70415 133.59 12.7041 137.59 4.70415 141.59Z" transform="matrix(1 -1.22465e-16 -1.22465e-16 -1 151.5 594.09)"/><path d="M0 0.333333-23.9999 0.333333-23.6666 0-23.6666 103.518-24.0018 103.184 6.08725 103.019 6.09092 103.685-24.3333 103.853-24.3333-0.333333 0-0.333333ZM4.26884 99.5488 12.704 102.523 5.26336 107.487Z" transform="matrix(1 -1.22465e-16 -1.22465e-16 -1 151.5 594.023)"/><path d="M0 0.333333-24 0.333333-23.6666 0-23.6666 178.184-24.003 177.851 6.17962 177.574 6.18574 178.241-24.3333 178.521-24.3333-0.333333 0-0.333333ZM4.04782 174.272 12.704 176.523 5.709 182.097Z" transform="matrix(1 -1.22465e-16 -1.22465e-16 -1 151.5 594.023)"/><path d="M139.5 484.5 149.735 502.843" stroke="#000000" stroke-width="0.666667" stroke-miterlimit="8" fill="none" fill-rule="evenodd"/><path d="M0 0 10.2351 17.1213" stroke="#000000" stroke-width="0.666667" stroke-miterlimit="8" fill="none" fill-rule="evenodd" transform="matrix(1 0 0 -1 139.5 501.621)"/><text font-family="DengXian,DengXian_MSFontService,sans-serif" font-weight="400" font-size="24" transform="translate(179.729 132)">id<tspan x="55.068" y="0">F2</tspan><tspan x="110.136" y="0">F3</tspan></text><path d="M615.62 575.851 615.62 616.117" stroke="#000000" stroke-width="1.33333" stroke-linejoin="round" stroke-miterlimit="10" fill="none" fill-rule="evenodd"/><path d="M669.678 575.851 669.678 616.117" stroke="#000000" stroke-width="1.33333" stroke-linejoin="round" stroke-miterlimit="10" fill="none" fill-rule="evenodd"/><path d="M561.561 575.851 561.561 616.117" stroke="#000000" stroke-width="1.33333" stroke-linejoin="round" stroke-miterlimit="10" fill="none" fill-rule="evenodd"/><path d="M723.736 575.851 723.736 616.117" stroke="#000000" stroke-width="1.33333" stroke-linejoin="round" stroke-miterlimit="10" fill="none" fill-rule="evenodd"/><path d="M560.895 576.517 724.402 576.517" stroke="#000000" stroke-width="1.33333" stroke-linejoin="round" stroke-miterlimit="10" fill="none" fill-rule="evenodd"/><path d="M560.895 615.451 724.402 615.451" stroke="#000000" stroke-width="1.33333" stroke-linejoin="round" stroke-miterlimit="10" fill="none" fill-rule="evenodd"/><text font-family="DengXian,DengXian_MSFontService,sans-serif" font-weight="400" font-size="24" transform="translate(583.174 603)">c<tspan x="53.1415" y="0">1</tspan><tspan x="107.2" y="0">0</tspan></text><path d="M615.62 398.502 615.62 516.635" stroke="#000000" stroke-width="1.33333" stroke-linejoin="round" stroke-miterlimit="10" fill="none" fill-rule="evenodd"/><path d="M669.678 398.502 669.678 516.635" stroke="#000000" stroke-width="1.33333" stroke-linejoin="round" stroke-miterlimit="10" fill="none" fill-rule="evenodd"/><path d="M560.895 438.102 724.402 438.102" stroke="#000000" stroke-width="1.33333" stroke-linejoin="round" stroke-miterlimit="10" fill="none" fill-rule="evenodd"/><path d="M560.895 477.035 724.402 477.035" stroke="#000000" stroke-width="1.33333" stroke-linejoin="round" stroke-miterlimit="10" fill="none" fill-rule="evenodd"/><path d="M561.561 398.502 561.561 516.635" stroke="#000000" stroke-width="1.33333" stroke-linejoin="round" stroke-miterlimit="10" fill="none" fill-rule="evenodd"/><path d="M723.736 398.502 723.736 516.635" stroke="#000000" stroke-width="1.33333" stroke-linejoin="round" stroke-miterlimit="10" fill="none" fill-rule="evenodd"/><path d="M560.895 399.168 724.402 399.168" stroke="#000000" stroke-width="1.33333" stroke-linejoin="round" stroke-miterlimit="10" fill="none" fill-rule="evenodd"/><path d="M560.895 515.968 724.402 515.968" stroke="#000000" stroke-width="1.33333" stroke-linejoin="round" stroke-miterlimit="10" fill="none" fill-rule="evenodd"/><text font-family="DengXian,DengXian_MSFontService,sans-serif" font-weight="400" font-size="24" transform="translate(582.59 426)">a<tspan x="53.7248" y="0">1</tspan><tspan x="107.783" y="0">1</tspan><tspan x="-0.916687" y="39">d</tspan><tspan x="53.7248" y="39">1</tspan><tspan x="107.783" y="39">2</tspan><tspan x="-0.916687" y="78">b</tspan><tspan x="53.7248" y="78">2</tspan><tspan x="107.783" y="78">0</tspan></text><rect x="549" y="565" width="187" height="60" stroke="#000000" stroke-width="2" stroke-miterlimit="8" stroke-dasharray="8 6" fill="none"/><path d="M0 0.333333-24 0.333333-23.6667 0-23.6667 137.59-24 137.257 6.03748 137.257 6.03748 137.923-24.3334 137.923-24.3334-0.333333 0-0.333333ZM4.70415 133.59 12.7041 137.59 4.70415 141.59Z" transform="matrix(1 -1.22465e-16 -1.22465e-16 -1 549.5 596.09)"/><path d="M0 0.333333-24.0001 0.333333-23.6667 0-23.6667 99.0579-23.9983 98.7245 5.92003 98.8822 5.91652 99.5489-24.3334 99.3895-24.3334-0.333333 0-0.333333ZM5.0673 95.0859 12.5382 100.004 4.12129 103.03Z" transform="matrix(1 -1.22465e-16 -1.22465e-16 -1 549.5 595.504)"/><path d="M0 0.333333-24 0.333333-23.6666 0-23.6666 178.184-24.003 177.851 6.17962 177.574 6.18574 178.241-24.3333 178.521-24.3333-0.333333 0-0.333333ZM4.04782 174.272 12.704 176.523 5.709 182.097Z" transform="matrix(1 -1.22465e-16 -1.22465e-16 -1 549.5 596.023)"/><path d="M980.829 428.363 980.829 585.43" stroke="#000000" stroke-width="1.33333" stroke-linejoin="round" stroke-miterlimit="10" fill="none" fill-rule="evenodd"/><path d="M1034.89 428.363 1034.89 585.43" stroke="#000000" stroke-width="1.33333" stroke-linejoin="round" stroke-miterlimit="10" fill="none" fill-rule="evenodd"/><path d="M926.104 467.963 1089.61 467.963" stroke="#000000" stroke-width="1.33333" stroke-linejoin="round" stroke-miterlimit="10" fill="none" fill-rule="evenodd"/><path d="M926.104 506.896 1089.61 506.896" stroke="#000000" stroke-width="1.33333" stroke-linejoin="round" stroke-miterlimit="10" fill="none" fill-rule="evenodd"/><path d="M926.104 545.83 1089.61 545.83" stroke="#000000" stroke-width="1.33333" stroke-linejoin="round" stroke-miterlimit="10" fill="none" fill-rule="evenodd"/><path d="M926.771 428.363 926.771 585.43" stroke="#000000" stroke-width="1.33333" stroke-linejoin="round" stroke-miterlimit="10" fill="none" fill-rule="evenodd"/><path d="M1088.94 428.363 1088.94 585.43" stroke="#000000" stroke-width="1.33333" stroke-linejoin="round" stroke-miterlimit="10" fill="none" fill-rule="evenodd"/><path d="M926.104 429.03 1089.61 429.03" stroke="#000000" stroke-width="1.33333" stroke-linejoin="round" stroke-miterlimit="10" fill="none" fill-rule="evenodd"/><path d="M926.104 584.763 1089.61 584.763" stroke="#000000" stroke-width="1.33333" stroke-linejoin="round" stroke-miterlimit="10" fill="none" fill-rule="evenodd"/><text font-family="DengXian,DengXian_MSFontService,sans-serif" font-weight="400" font-size="24" transform="translate(947.8 456)">a<tspan x="53.7249" y="0">1</tspan><tspan x="107.783" y="0">1</tspan><tspan x="-0.916687" y="39">d</tspan><tspan x="53.7249" y="39">1</tspan><tspan x="107.783" y="39">2</tspan><tspan x="-0.916687" y="78">b</tspan><tspan x="53.7249" y="78">2</tspan><tspan x="107.783" y="78">0</tspan><tspan x="0.583313" y="117">c</tspan><tspan x="53.7249" y="117">1</tspan><tspan x="107.783" y="117">0</tspan></text><path d="M377.5 235.167 460.01 235.167 460.01 235.833 377.5 235.833ZM458.676 231.5 466.676 235.5 458.676 239.5Z"/><path d="M776.5 228.167 859.01 228.167 859.01 228.833 776.5 228.833ZM857.676 224.5 865.676 228.5 857.676 232.5Z"/><path d="M377.5 509.167 460.01 509.167 460.01 509.833 377.5 509.833ZM458.676 505.5 466.676 509.5 458.676 513.5Z"/><path d="M776.5 507.167 859.01 507.167 859.01 507.833 776.5 507.833ZM857.676 503.5 865.676 507.5 857.676 511.5Z"/></g></svg>