<svg width="1280" height="720" xmlns="http://www.w3.org/2000/svg" xmlns:xlink="http://www.w3.org/1999/xlink" overflow="hidden"><defs><clipPath id="clip0"><rect x="0" y="0" width="1280" height="720"/></clipPath></defs><g clip-path="url(#clip0)"><rect x="0" y="0" width="1280" height="720" fill="#FFFFFF"/><text font-family="DengXian,DengXian_MSFontService,sans-serif" font-weight="400" font-size="27" transform="translate(486.085 105)">存在<tspan x="53.3333" y="0">/</tspan>子查询过滤<tspan x="196.667" y="0">(id==id1)</tspan></text><rect x="303" y="368" width="183" height="58" stroke="#000000" stroke-width="2" stroke-miterlimit="8" stroke-dasharray="8 6" fill="none"/><text font-family="DengXian,DengXian_MSFontService,sans-serif" font-weight="400" font-size="24" transform="translate(87.1946 362)">id<tspan x="35.63" y="0">name</tspan><tspan x="110.136" y="0">F3</tspan></text><path d="M123.794 373.619 123.794 491.752" stroke="#000000" stroke-width="1.33333" stroke-linejoin="round" stroke-miterlimit="10" fill="none" fill-rule="evenodd"/><path d="M177.852 373.619 177.852 491.752" stroke="#000000" stroke-width="1.33333" stroke-linejoin="round" stroke-miterlimit="10" fill="none" fill-rule="evenodd"/><path d="M69.0693 413.219 232.577 413.219" stroke="#000000" stroke-width="1.33333" stroke-linejoin="round" stroke-miterlimit="10" fill="none" fill-rule="evenodd"/><path d="M69.0693 452.152 232.577 452.152" stroke="#000000" stroke-width="1.33333" stroke-linejoin="round" stroke-miterlimit="10" fill="none" fill-rule="evenodd"/><path d="M69.736 373.619 69.736 491.752" stroke="#000000" stroke-width="1.33333" stroke-linejoin="round" stroke-miterlimit="10" fill="none" fill-rule="evenodd"/><path d="M231.91 373.619 231.91 491.752" stroke="#000000" stroke-width="1.33333" stroke-linejoin="round" stroke-miterlimit="10" fill="none" fill-rule="evenodd"/><path d="M69.0693 374.286 232.577 374.286" stroke="#000000" stroke-width="1.33333" stroke-linejoin="round" stroke-miterlimit="10" fill="none" fill-rule="evenodd"/><path d="M69.0693 491.086 232.577 491.086" stroke="#000000" stroke-width="1.33333" stroke-linejoin="round" stroke-miterlimit="10" fill="none" fill-rule="evenodd"/><text font-family="DengXian,DengXian_MSFontService,sans-serif" font-weight="400" font-size="24" transform="translate(90.765 401)">a<tspan x="54.0582" y="0">a</tspan><tspan x="107.783" y="0">1</tspan><tspan x="-0.916687" y="39">b</tspan><tspan x="53.1415" y="39">b</tspan><tspan x="107.783" y="39">0</tspan><tspan x="0.583313" y="78">c</tspan><tspan x="54.6415" y="78">c</tspan><tspan x="107.783" y="78">0</tspan></text><path d="M545.5 299.5 555.735 317.843" stroke="#000000" stroke-width="0.666667" stroke-miterlimit="8" fill="none" fill-rule="evenodd"/><path d="M0 0 10.2351 17.1213" stroke="#000000" stroke-width="0.666667" stroke-miterlimit="8" fill="none" fill-rule="evenodd" transform="matrix(1 0 0 -1 545.5 316.621)"/><path d="M124.142 195.215 124.142 274.415" stroke="#000000" stroke-width="1.33333" stroke-linejoin="round" stroke-miterlimit="10" fill="none" fill-rule="evenodd"/><path d="M178.2 195.215 178.2 274.415" stroke="#000000" stroke-width="1.33333" stroke-linejoin="round" stroke-miterlimit="10" fill="none" fill-rule="evenodd"/><path d="M69.4173 234.815 232.925 234.815" stroke="#000000" stroke-width="1.33333" stroke-linejoin="round" stroke-miterlimit="10" fill="none" fill-rule="evenodd"/><path d="M70.084 195.215 70.084 274.415" stroke="#000000" stroke-width="1.33333" stroke-linejoin="round" stroke-miterlimit="10" fill="none" fill-rule="evenodd"/><path d="M232.258 195.215 232.258 274.415" stroke="#000000" stroke-width="1.33333" stroke-linejoin="round" stroke-miterlimit="10" fill="none" fill-rule="evenodd"/><path d="M69.4173 195.882 232.925 195.882" stroke="#000000" stroke-width="1.33333" stroke-linejoin="round" stroke-miterlimit="10" fill="none" fill-rule="evenodd"/><path d="M69.4173 273.748 232.925 273.748" stroke="#000000" stroke-width="1.33333" stroke-linejoin="round" stroke-miterlimit="10" fill="none" fill-rule="evenodd"/><text font-family="DengXian,DengXian_MSFontService,sans-serif" font-weight="400" font-size="24" transform="translate(91.1131 223)">a<tspan x="53.7248" y="0">1</tspan><tspan x="107.783" y="0">1</tspan><tspan x="0.583313" y="39">c</tspan><tspan x="53.7248" y="39">1</tspan><tspan x="107.783" y="39">2</tspan><tspan x="-8.69932" y="-40">id1</tspan><tspan x="32.5793" y="-40">name</tspan><tspan x="103.831" y="-40">F3</tspan></text><path d="M374.217 179.868 374.217 259.068" stroke="#000000" stroke-width="1.33333" stroke-linejoin="round" stroke-miterlimit="10" fill="none" fill-rule="evenodd"/><path d="M428.275 179.868 428.275 259.068" stroke="#000000" stroke-width="1.33333" stroke-linejoin="round" stroke-miterlimit="10" fill="none" fill-rule="evenodd"/><path d="M319.492 219.468 483 219.468" stroke="#000000" stroke-width="1.33333" stroke-linejoin="round" stroke-miterlimit="10" fill="none" fill-rule="evenodd"/><path d="M320.159 179.868 320.159 259.068" stroke="#000000" stroke-width="1.33333" stroke-linejoin="round" stroke-miterlimit="10" fill="none" fill-rule="evenodd"/><path d="M482.333 179.868 482.333 259.068" stroke="#000000" stroke-width="1.33333" stroke-linejoin="round" stroke-miterlimit="10" fill="none" fill-rule="evenodd"/><path d="M319.492 180.535 483 180.535" stroke="#000000" stroke-width="1.33333" stroke-linejoin="round" stroke-miterlimit="10" fill="none" fill-rule="evenodd"/><path d="M319.492 258.402 483 258.402" stroke="#000000" stroke-width="1.33333" stroke-linejoin="round" stroke-miterlimit="10" fill="none" fill-rule="evenodd"/><text font-family="DengXian,DengXian_MSFontService,sans-serif" font-weight="400" font-size="24" transform="translate(341.188 207)">a<tspan x="53.7248" y="0">1</tspan><tspan x="107.783" y="0">1</tspan><tspan x="0.583313" y="39">c</tspan><tspan x="53.7248" y="39">1</tspan><tspan x="107.783" y="39">2</tspan></text><path d="M367.31 377.886 367.31 496.019" stroke="#000000" stroke-width="1.33333" stroke-linejoin="round" stroke-miterlimit="10" fill="none" fill-rule="evenodd"/><path d="M421.368 377.886 421.368 496.019" stroke="#000000" stroke-width="1.33333" stroke-linejoin="round" stroke-miterlimit="10" fill="none" fill-rule="evenodd"/><path d="M312.585 417.486 476.092 417.486" stroke="#000000" stroke-width="1.33333" stroke-linejoin="round" stroke-miterlimit="10" fill="none" fill-rule="evenodd"/><path d="M312.585 456.419 476.092 456.419" stroke="#000000" stroke-width="1.33333" stroke-linejoin="round" stroke-miterlimit="10" fill="none" fill-rule="evenodd"/><path d="M313.251 377.886 313.251 496.019" stroke="#000000" stroke-width="1.33333" stroke-linejoin="round" stroke-miterlimit="10" fill="none" fill-rule="evenodd"/><path d="M475.426 377.886 475.426 496.019" stroke="#000000" stroke-width="1.33333" stroke-linejoin="round" stroke-miterlimit="10" fill="none" fill-rule="evenodd"/><path d="M312.585 378.552 476.092 378.552" stroke="#000000" stroke-width="1.33333" stroke-linejoin="round" stroke-miterlimit="10" fill="none" fill-rule="evenodd"/><path d="M312.585 495.352 476.092 495.352" stroke="#000000" stroke-width="1.33333" stroke-linejoin="round" stroke-miterlimit="10" fill="none" fill-rule="evenodd"/><text font-family="DengXian,DengXian_MSFontService,sans-serif" font-weight="400" font-size="24" transform="translate(334.28 405)">a<tspan x="54.0582" y="0">a</tspan><tspan x="107.783" y="0">1</tspan><tspan x="-0.916687" y="39">b</tspan><tspan x="53.1414" y="39">b</tspan><tspan x="107.783" y="39">0</tspan><tspan x="0.583313" y="78">c</tspan><tspan x="54.6414" y="78">c</tspan><tspan x="107.783" y="78">0</tspan></text><path d="M0 0.333333-24 0.333333-23.6667 0-23.6667 177.448-24 177.114 10.1462 177.114 10.1462 177.781-24.3334 177.781-24.3334-0.333333 0-0.333333ZM8.81281 173.448 16.8128 177.448 8.81281 181.448Z" transform="matrix(1 -0 -0 -1 303.5 396.948)"/><rect x="575" y="406" width="183" height="58" stroke="#000000" stroke-width="2" stroke-miterlimit="8" stroke-dasharray="8 6" fill="none"/><path d="M645.623 179.868 645.623 259.068" stroke="#000000" stroke-width="1.33333" stroke-linejoin="round" stroke-miterlimit="10" fill="none" fill-rule="evenodd"/><path d="M699.681 179.868 699.681 259.068" stroke="#000000" stroke-width="1.33333" stroke-linejoin="round" stroke-miterlimit="10" fill="none" fill-rule="evenodd"/><path d="M590.898 219.468 754.406 219.468" stroke="#000000" stroke-width="1.33333" stroke-linejoin="round" stroke-miterlimit="10" fill="none" fill-rule="evenodd"/><path d="M591.565 179.868 591.565 259.068" stroke="#000000" stroke-width="1.33333" stroke-linejoin="round" stroke-miterlimit="10" fill="none" fill-rule="evenodd"/><path d="M753.739 179.868 753.739 259.068" stroke="#000000" stroke-width="1.33333" stroke-linejoin="round" stroke-miterlimit="10" fill="none" fill-rule="evenodd"/><path d="M590.898 180.535 754.406 180.535" stroke="#000000" stroke-width="1.33333" stroke-linejoin="round" stroke-miterlimit="10" fill="none" fill-rule="evenodd"/><path d="M590.898 258.402 754.406 258.402" stroke="#000000" stroke-width="1.33333" stroke-linejoin="round" stroke-miterlimit="10" fill="none" fill-rule="evenodd"/><text font-family="DengXian,DengXian_MSFontService,sans-serif" font-weight="400" font-size="24" transform="translate(612.594 207)">a<tspan x="53.7249" y="0">1</tspan><tspan x="107.783" y="0">1</tspan><tspan x="0.583313" y="39">c</tspan><tspan x="53.7249" y="39">1</tspan><tspan x="107.783" y="39">2</tspan></text><path d="M638.716 377.886 638.716 496.019" stroke="#000000" stroke-width="1.33333" stroke-linejoin="round" stroke-miterlimit="10" fill="none" fill-rule="evenodd"/><path d="M692.774 377.886 692.774 496.019" stroke="#000000" stroke-width="1.33333" stroke-linejoin="round" stroke-miterlimit="10" fill="none" fill-rule="evenodd"/><path d="M583.991 417.486 747.499 417.486" stroke="#000000" stroke-width="1.33333" stroke-linejoin="round" stroke-miterlimit="10" fill="none" fill-rule="evenodd"/><path d="M583.991 456.419 747.499 456.419" stroke="#000000" stroke-width="1.33333" stroke-linejoin="round" stroke-miterlimit="10" fill="none" fill-rule="evenodd"/><path d="M584.657 377.886 584.657 496.019" stroke="#000000" stroke-width="1.33333" stroke-linejoin="round" stroke-miterlimit="10" fill="none" fill-rule="evenodd"/><path d="M746.832 377.886 746.832 496.019" stroke="#000000" stroke-width="1.33333" stroke-linejoin="round" stroke-miterlimit="10" fill="none" fill-rule="evenodd"/><path d="M583.991 378.552 747.499 378.552" stroke="#000000" stroke-width="1.33333" stroke-linejoin="round" stroke-miterlimit="10" fill="none" fill-rule="evenodd"/><path d="M583.991 495.352 747.499 495.352" stroke="#000000" stroke-width="1.33333" stroke-linejoin="round" stroke-miterlimit="10" fill="none" fill-rule="evenodd"/><text font-family="DengXian,DengXian_MSFontService,sans-serif" font-weight="400" font-size="24" transform="translate(605.687 405)">a<tspan x="54.0582" y="0">a</tspan><tspan x="107.783" y="0">1</tspan><tspan x="-0.916687" y="39">b</tspan><tspan x="53.1415" y="39">b</tspan><tspan x="107.783" y="39">0</tspan><tspan x="0.583313" y="78">c</tspan><tspan x="54.6415" y="78">c</tspan><tspan x="107.783" y="78">0</tspan></text><path d="M0 0.333333-24 0.333333-23.6667 0-23.6667 215.848-24 215.514 10.1462 215.514 10.1462 216.181-24.3333 216.181-24.3333-0.333333 0-0.333333ZM8.81281 211.848 16.8128 215.848 8.81281 219.848Z" transform="matrix(1 -0 -0 -1 575.5 435.348)"/><rect x="847" y="447" width="183" height="58" stroke="#000000" stroke-width="2" stroke-miterlimit="8" stroke-dasharray="8 6" fill="none"/><path d="M917.58 179.868 917.58 259.068" stroke="#000000" stroke-width="1.33333" stroke-linejoin="round" stroke-miterlimit="10" fill="none" fill-rule="evenodd"/><path d="M971.639 179.868 971.639 259.068" stroke="#000000" stroke-width="1.33333" stroke-linejoin="round" stroke-miterlimit="10" fill="none" fill-rule="evenodd"/><path d="M862.856 219.468 1026.36 219.468" stroke="#000000" stroke-width="1.33333" stroke-linejoin="round" stroke-miterlimit="10" fill="none" fill-rule="evenodd"/><path d="M863.522 179.868 863.522 259.068" stroke="#000000" stroke-width="1.33333" stroke-linejoin="round" stroke-miterlimit="10" fill="none" fill-rule="evenodd"/><path d="M1025.7 179.868 1025.7 259.068" stroke="#000000" stroke-width="1.33333" stroke-linejoin="round" stroke-miterlimit="10" fill="none" fill-rule="evenodd"/><path d="M862.856 180.535 1026.36 180.535" stroke="#000000" stroke-width="1.33333" stroke-linejoin="round" stroke-miterlimit="10" fill="none" fill-rule="evenodd"/><path d="M862.856 258.402 1026.36 258.402" stroke="#000000" stroke-width="1.33333" stroke-linejoin="round" stroke-miterlimit="10" fill="none" fill-rule="evenodd"/><text font-family="DengXian,DengXian_MSFontService,sans-serif" font-weight="400" font-size="24" transform="translate(884.551 207)">a<tspan x="53.7249" y="0">1</tspan><tspan x="107.783" y="0">1</tspan><tspan x="0.583313" y="39">c</tspan><tspan x="53.7249" y="39">1</tspan><tspan x="107.783" y="39">2</tspan></text><path d="M856.615 417.486 910.673 417.486 910.673 456.419 856.615 456.419Z" fill="#FF0000" fill-rule="evenodd"/><path d="M910.673 417.486 964.731 417.486 964.731 456.419 910.673 456.419Z" fill="#FF0000" fill-rule="evenodd"/><path d="M964.731 417.486 1018.79 417.486 1018.79 456.419 964.731 456.419Z" fill="#FF0000" fill-rule="evenodd"/><path d="M910.673 377.886 910.673 496.019" stroke="#000000" stroke-width="1.33333" stroke-linejoin="round" stroke-miterlimit="10" fill="none" fill-rule="evenodd"/><path d="M964.731 377.886 964.731 496.019" stroke="#000000" stroke-width="1.33333" stroke-linejoin="round" stroke-miterlimit="10" fill="none" fill-rule="evenodd"/><path d="M855.948 417.486 1019.46 417.486" stroke="#000000" stroke-width="1.33333" stroke-linejoin="round" stroke-miterlimit="10" fill="none" fill-rule="evenodd"/><path d="M855.948 456.419 1019.46 456.419" stroke="#000000" stroke-width="1.33333" stroke-linejoin="round" stroke-miterlimit="10" fill="none" fill-rule="evenodd"/><path d="M856.615 377.886 856.615 496.019" stroke="#000000" stroke-width="1.33333" stroke-linejoin="round" stroke-miterlimit="10" fill="none" fill-rule="evenodd"/><path d="M1018.79 377.886 1018.79 496.019" stroke="#000000" stroke-width="1.33333" stroke-linejoin="round" stroke-miterlimit="10" fill="none" fill-rule="evenodd"/><path d="M855.948 378.552 1019.46 378.552" stroke="#000000" stroke-width="1.33333" stroke-linejoin="round" stroke-miterlimit="10" fill="none" fill-rule="evenodd"/><path d="M855.948 495.352 1019.46 495.352" stroke="#000000" stroke-width="1.33333" stroke-linejoin="round" stroke-miterlimit="10" fill="none" fill-rule="evenodd"/><text font-family="DengXian,DengXian_MSFontService,sans-serif" font-weight="400" font-size="24" transform="translate(877.644 405)">a<tspan x="54.0582" y="0">a</tspan><tspan x="107.783" y="0">1</tspan><tspan x="-0.916687" y="39">b</tspan><tspan x="53.1415" y="39">b</tspan><tspan x="107.783" y="39">0</tspan><tspan x="0.583313" y="78">c</tspan><tspan x="54.6415" y="78">c</tspan><tspan x="107.783" y="78">0</tspan></text><path d="M0 0.333333-23.9998 0.333333-23.6665 0-23.6665 256.381-23.9998 256.048 10.1461 256.048 10.1461 256.714-24.3332 256.714-24.3332-0.333333 0-0.333333ZM8.81281 252.381 16.8128 256.381 8.81281 260.381Z" transform="matrix(1 -0 -0 -1 847.5 475.881)"/><path d="M1131.86 400.997 1131.86 480.197" stroke="#000000" stroke-width="1.33333" stroke-linejoin="round" stroke-miterlimit="10" fill="none" fill-rule="evenodd"/><path d="M1185.92 400.997 1185.92 480.197" stroke="#000000" stroke-width="1.33333" stroke-linejoin="round" stroke-miterlimit="10" fill="none" fill-rule="evenodd"/><path d="M1077.14 440.597 1240.65 440.597" stroke="#000000" stroke-width="1.33333" stroke-linejoin="round" stroke-miterlimit="10" fill="none" fill-rule="evenodd"/><path d="M1077.81 400.997 1077.81 480.197" stroke="#000000" stroke-width="1.33333" stroke-linejoin="round" stroke-miterlimit="10" fill="none" fill-rule="evenodd"/><path d="M1239.98 400.997 1239.98 480.197" stroke="#000000" stroke-width="1.33333" stroke-linejoin="round" stroke-miterlimit="10" fill="none" fill-rule="evenodd"/><path d="M1077.14 401.664 1240.65 401.664" stroke="#000000" stroke-width="1.33333" stroke-linejoin="round" stroke-miterlimit="10" fill="none" fill-rule="evenodd"/><path d="M1077.14 479.531 1240.65 479.531" stroke="#000000" stroke-width="1.33333" stroke-linejoin="round" stroke-miterlimit="10" fill="none" fill-rule="evenodd"/><text font-family="DengXian,DengXian_MSFontService,sans-serif" font-weight="400" font-size="24" transform="translate(1098.84 428)">a<tspan x="54.0581" y="0">a</tspan><tspan x="107.783" y="0">1</tspan><tspan x="0.583252" y="39">c</tspan><tspan x="54.6415" y="39">c</tspan><tspan x="107.783" y="39">0</tspan></text><path d="M247.5 441.167 287.421 441.167 287.421 441.833 247.5 441.833ZM286.088 437.5 294.088 441.5 286.088 445.5Z"/><path d="M499.5 439.167 539.421 439.167 539.421 439.833 499.5 439.833ZM538.088 435.5 546.088 439.5 538.088 443.5Z"/><path d="M769.5 435.167 809.421 435.167 809.421 435.833 769.5 435.833ZM808.088 431.5 816.088 435.5 808.088 439.5Z"/><path d="M1026.5 435.167 1066.42 435.167 1066.42 435.833 1026.5 435.833ZM1065.09 431.5 1073.09 435.5 1065.09 439.5Z"/></g></svg>