<svg width="1280" height="720" xmlns="http://www.w3.org/2000/svg" xmlns:xlink="http://www.w3.org/1999/xlink" overflow="hidden"><defs><clipPath id="clip0"><rect x="0" y="0" width="1280" height="720"/></clipPath><clipPath id="clip1"><rect x="857" y="136" width="45" height="203"/></clipPath><clipPath id="clip2"><rect x="901" y="136" width="45" height="203"/></clipPath><clipPath id="clip3"><rect x="856" y="247" width="45" height="203"/></clipPath><clipPath id="clip4"><rect x="900" y="247" width="46" height="203"/></clipPath><clipPath id="clip5"><rect x="857" y="374" width="46" height="203"/></clipPath><clipPath id="clip6"><rect x="902" y="374" width="45" height="203"/></clipPath><clipPath id="clip7"><rect x="1026" y="207" width="45" height="203"/></clipPath><clipPath id="clip8"><rect x="1070" y="207" width="45" height="203"/></clipPath><clipPath id="clip9"><rect x="1027" y="246" width="45" height="203"/></clipPath><clipPath id="clip10"><rect x="1071" y="246" width="45" height="203"/></clipPath><clipPath id="clip11"><rect x="1026" y="286" width="45" height="202"/></clipPath><clipPath id="clip12"><rect x="1070" y="286" width="46" height="202"/></clipPath></defs><g clip-path="url(#clip0)"><rect x="0" y="0" width="1280" height="720" fill="#FFFFFF"/><text font-family="DengXian,DengXian_MSFontService,sans-serif" font-weight="400" font-size="24" transform="translate(147.089 192)">F1<tspan x="50.3073" y="0">F2</tspan><tspan x="100.615" y="0">F3</tspan></text><path d="M184.058 212.964 184.058 486.831" stroke="#000000" stroke-width="1.33333" stroke-linejoin="round" stroke-miterlimit="10" fill="none" fill-rule="evenodd"/><path d="M238.104 212.964 238.104 486.831" stroke="#000000" stroke-width="1.33333" stroke-linejoin="round" stroke-miterlimit="10" fill="none" fill-rule="evenodd"/><path d="M292.149 212.964 292.149 486.831" stroke="#000000" stroke-width="1.33333" stroke-linejoin="round" stroke-miterlimit="10" fill="none" fill-rule="evenodd"/><path d="M129.346 252.564 346.861 252.564" stroke="#000000" stroke-width="1.33333" stroke-linejoin="round" stroke-miterlimit="10" fill="none" fill-rule="evenodd"/><path d="M129.346 291.498 346.861 291.498" stroke="#000000" stroke-width="1.33333" stroke-linejoin="round" stroke-miterlimit="10" fill="none" fill-rule="evenodd"/><path d="M129.346 330.431 346.861 330.431" stroke="#000000" stroke-width="1.33333" stroke-linejoin="round" stroke-miterlimit="10" fill="none" fill-rule="evenodd"/><path d="M129.346 369.364 346.861 369.364" stroke="#000000" stroke-width="1.33333" stroke-linejoin="round" stroke-miterlimit="10" fill="none" fill-rule="evenodd"/><path d="M129.346 408.298 346.861 408.298" stroke="#000000" stroke-width="1.33333" stroke-linejoin="round" stroke-miterlimit="10" fill="none" fill-rule="evenodd"/><path d="M129.346 447.231 346.861 447.231" stroke="#000000" stroke-width="1.33333" stroke-linejoin="round" stroke-miterlimit="10" fill="none" fill-rule="evenodd"/><path d="M130.013 212.964 130.013 486.831" stroke="#000000" stroke-width="1.33333" stroke-linejoin="round" stroke-miterlimit="10" fill="none" fill-rule="evenodd"/><path d="M346.194 212.964 346.194 486.831" stroke="#000000" stroke-width="1.33333" stroke-linejoin="round" stroke-miterlimit="10" fill="none" fill-rule="evenodd"/><path d="M129.346 213.631 346.861 213.631" stroke="#000000" stroke-width="1.33333" stroke-linejoin="round" stroke-miterlimit="10" fill="none" fill-rule="evenodd"/><path d="M129.346 486.164 346.861 486.164" stroke="#000000" stroke-width="1.33333" stroke-linejoin="round" stroke-miterlimit="10" fill="none" fill-rule="evenodd"/><text font-family="DengXian,DengXian_MSFontService,sans-serif" font-weight="400" font-size="24" transform="translate(145.452 240)">x1<tspan x="53.7119" y="0">y1</tspan><tspan x="113.341" y="0">0</tspan><tspan x="167.386" y="0">1</tspan><tspan x="0" y="39">x1</tspan><tspan x="53.7119" y="39">y1</tspan><tspan x="113.341" y="39">0</tspan><tspan x="167.386" y="39">1</tspan><tspan x="0" y="78">x3</tspan><tspan x="53.7119" y="78">y1</tspan><tspan x="113.341" y="78">0</tspan><tspan x="167.386" y="78">1</tspan><tspan x="0" y="117">x2</tspan><tspan x="53.7119" y="117">y2</tspan><tspan x="113.341" y="117">0</tspan><tspan x="167.386" y="117">2</tspan><tspan x="0" y="156">x2</tspan><tspan x="53.7119" y="156">y2</tspan><tspan x="113.341" y="156">0</tspan><tspan x="167.386" y="156">2</tspan><tspan x="0" y="195">x3</tspan><tspan x="53.7119" y="195">y1</tspan><tspan x="113.341" y="195">0</tspan><tspan x="167.386" y="195">2</tspan><tspan x="0" y="234">x2</tspan><tspan x="53.7119" y="234">y2</tspan><tspan x="113.341" y="234">0</tspan><tspan x="167.386" y="234">2</tspan><tspan x="224.891" y="92">以</tspan>F1,F2分组</text><path d="M366.5 354.167 487.523 354.167 487.523 354.833 366.5 354.833ZM486.189 350.5 494.189 354.5 486.189 358.5Z"/><text font-family="DengXian,DengXian_MSFontService,sans-serif" font-weight="400" font-size="24" transform="translate(298.011 192)">F4</text><path d="M576.926 198.777 576.926 277.977" stroke="#000000" stroke-width="1.33333" stroke-linejoin="round" stroke-miterlimit="10" fill="none" fill-rule="evenodd"/><path d="M630.971 198.777 630.971 277.977" stroke="#000000" stroke-width="1.33333" stroke-linejoin="round" stroke-miterlimit="10" fill="none" fill-rule="evenodd"/><path d="M685.016 198.777 685.016 277.977" stroke="#000000" stroke-width="1.33333" stroke-linejoin="round" stroke-miterlimit="10" fill="none" fill-rule="evenodd"/><path d="M522.214 238.377 739.728 238.377" stroke="#000000" stroke-width="1.33333" stroke-linejoin="round" stroke-miterlimit="10" fill="none" fill-rule="evenodd"/><path d="M522.881 198.777 522.881 277.977" stroke="#000000" stroke-width="1.33333" stroke-linejoin="round" stroke-miterlimit="10" fill="none" fill-rule="evenodd"/><path d="M739.062 198.777 739.062 277.977" stroke="#000000" stroke-width="1.33333" stroke-linejoin="round" stroke-miterlimit="10" fill="none" fill-rule="evenodd"/><path d="M522.214 199.444 739.728 199.444" stroke="#000000" stroke-width="1.33333" stroke-linejoin="round" stroke-miterlimit="10" fill="none" fill-rule="evenodd"/><path d="M522.214 277.311 739.728 277.311" stroke="#000000" stroke-width="1.33333" stroke-linejoin="round" stroke-miterlimit="10" fill="none" fill-rule="evenodd"/><text font-family="DengXian,DengXian_MSFontService,sans-serif" font-weight="400" font-size="24" transform="translate(538.32 226)">x1<tspan x="53.7119" y="0">y1</tspan><tspan x="113.341" y="0">0</tspan><tspan x="167.386" y="0">1</tspan><tspan x="0" y="39">x1</tspan><tspan x="53.7119" y="39">y1</tspan><tspan x="113.341" y="39">0</tspan><tspan x="167.386" y="39">1</tspan></text><path d="M575.619 308.964 575.619 388.164" stroke="#000000" stroke-width="1.33333" stroke-linejoin="round" stroke-miterlimit="10" fill="none" fill-rule="evenodd"/><path d="M629.664 308.964 629.664 388.164" stroke="#000000" stroke-width="1.33333" stroke-linejoin="round" stroke-miterlimit="10" fill="none" fill-rule="evenodd"/><path d="M683.709 308.964 683.709 388.164" stroke="#000000" stroke-width="1.33333" stroke-linejoin="round" stroke-miterlimit="10" fill="none" fill-rule="evenodd"/><path d="M520.907 348.564 738.421 348.564" stroke="#000000" stroke-width="1.33333" stroke-linejoin="round" stroke-miterlimit="10" fill="none" fill-rule="evenodd"/><path d="M521.573 308.964 521.573 388.164" stroke="#000000" stroke-width="1.33333" stroke-linejoin="round" stroke-miterlimit="10" fill="none" fill-rule="evenodd"/><path d="M737.754 308.964 737.754 388.164" stroke="#000000" stroke-width="1.33333" stroke-linejoin="round" stroke-miterlimit="10" fill="none" fill-rule="evenodd"/><path d="M520.907 309.631 738.421 309.631" stroke="#000000" stroke-width="1.33333" stroke-linejoin="round" stroke-miterlimit="10" fill="none" fill-rule="evenodd"/><path d="M520.907 387.497 738.421 387.497" stroke="#000000" stroke-width="1.33333" stroke-linejoin="round" stroke-miterlimit="10" fill="none" fill-rule="evenodd"/><text font-family="DengXian,DengXian_MSFontService,sans-serif" font-weight="400" font-size="24" transform="translate(537.013 336)">x3<tspan x="53.7119" y="0">y1</tspan><tspan x="113.341" y="0">0</tspan><tspan x="167.386" y="0">1</tspan><tspan x="0" y="39">x3</tspan><tspan x="53.7119" y="39">y1</tspan><tspan x="113.341" y="39">0</tspan><tspan x="167.386" y="39">2</tspan></text><path d="M576.926 419.151 576.926 537.284" stroke="#000000" stroke-width="1.33333" stroke-linejoin="round" stroke-miterlimit="10" fill="none" fill-rule="evenodd"/><path d="M630.971 419.151 630.971 537.284" stroke="#000000" stroke-width="1.33333" stroke-linejoin="round" stroke-miterlimit="10" fill="none" fill-rule="evenodd"/><path d="M685.016 419.151 685.016 537.284" stroke="#000000" stroke-width="1.33333" stroke-linejoin="round" stroke-miterlimit="10" fill="none" fill-rule="evenodd"/><path d="M522.214 458.751 739.728 458.751" stroke="#000000" stroke-width="1.33333" stroke-linejoin="round" stroke-miterlimit="10" fill="none" fill-rule="evenodd"/><path d="M522.214 497.684 739.728 497.684" stroke="#000000" stroke-width="1.33333" stroke-linejoin="round" stroke-miterlimit="10" fill="none" fill-rule="evenodd"/><path d="M522.881 419.151 522.881 537.284" stroke="#000000" stroke-width="1.33333" stroke-linejoin="round" stroke-miterlimit="10" fill="none" fill-rule="evenodd"/><path d="M739.062 419.151 739.062 537.284" stroke="#000000" stroke-width="1.33333" stroke-linejoin="round" stroke-miterlimit="10" fill="none" fill-rule="evenodd"/><path d="M522.214 419.817 739.728 419.817" stroke="#000000" stroke-width="1.33333" stroke-linejoin="round" stroke-miterlimit="10" fill="none" fill-rule="evenodd"/><path d="M522.214 536.617 739.728 536.617" stroke="#000000" stroke-width="1.33333" stroke-linejoin="round" stroke-miterlimit="10" fill="none" fill-rule="evenodd"/><text font-family="DengXian,DengXian_MSFontService,sans-serif" font-weight="400" font-size="24" transform="translate(538.32 447)">x2<tspan x="53.7119" y="0">y2</tspan><tspan x="113.341" y="0">0</tspan><tspan x="167.386" y="0">2</tspan><tspan x="0" y="39">x2</tspan><tspan x="53.7119" y="39">y2</tspan><tspan x="113.341" y="39">0</tspan><tspan x="167.386" y="39">2</tspan><tspan x="0" y="77">x2</tspan><tspan x="53.7119" y="77">y2</tspan><tspan x="113.341" y="77">0</tspan><tspan x="167.386" y="77">2</tspan></text><path d="M901.868 217.392 901.868 257.659" stroke="#000000" stroke-width="1.33333" stroke-linejoin="round" stroke-miterlimit="10" fill="none" fill-rule="evenodd"/><path d="M945.792 217.392 945.792 257.659" stroke="#000000" stroke-width="1.33333" stroke-linejoin="round" stroke-miterlimit="10" fill="none" fill-rule="evenodd"/><path d="M857.945 217.392 857.945 257.659" stroke="#000000" stroke-width="1.33333" stroke-linejoin="round" stroke-miterlimit="10" fill="none" fill-rule="evenodd"/><path d="M989.715 217.392 989.715 257.659" stroke="#000000" stroke-width="1.33333" stroke-linejoin="round" stroke-miterlimit="10" fill="none" fill-rule="evenodd"/><path d="M857.278 218.059 990.382 218.059" stroke="#000000" stroke-width="1.33333" stroke-linejoin="round" stroke-miterlimit="10" fill="none" fill-rule="evenodd"/><path d="M857.278 256.992 990.382 256.992" stroke="#000000" stroke-width="1.33333" stroke-linejoin="round" stroke-miterlimit="10" fill="none" fill-rule="evenodd"/><g clip-path="url(#clip1)"><text font-family="DengXian,DengXian_MSFontService,sans-serif" font-weight="400" font-size="24" transform="translate(868.323 245)">x1</text></g><g clip-path="url(#clip2)"><text font-family="DengXian,DengXian_MSFontService,sans-serif" font-weight="400" font-size="24" transform="translate(911.913 245)">y1</text></g><text font-family="DengXian,DengXian_MSFontService,sans-serif" font-weight="400" font-size="24" transform="translate(961.42 245)">2</text><path d="M900.997 328.511 900.997 368.778" stroke="#000000" stroke-width="1.33333" stroke-linejoin="round" stroke-miterlimit="10" fill="none" fill-rule="evenodd"/><path d="M945.356 328.511 945.356 368.778" stroke="#000000" stroke-width="1.33333" stroke-linejoin="round" stroke-miterlimit="10" fill="none" fill-rule="evenodd"/><path d="M856.637 328.511 856.637 368.778" stroke="#000000" stroke-width="1.33333" stroke-linejoin="round" stroke-miterlimit="10" fill="none" fill-rule="evenodd"/><path d="M989.716 328.511 989.716 368.778" stroke="#000000" stroke-width="1.33333" stroke-linejoin="round" stroke-miterlimit="10" fill="none" fill-rule="evenodd"/><path d="M855.971 329.178 990.382 329.178" stroke="#000000" stroke-width="1.33333" stroke-linejoin="round" stroke-miterlimit="10" fill="none" fill-rule="evenodd"/><path d="M855.971 368.111 990.382 368.111" stroke="#000000" stroke-width="1.33333" stroke-linejoin="round" stroke-miterlimit="10" fill="none" fill-rule="evenodd"/><g clip-path="url(#clip3)"><text font-family="DengXian,DengXian_MSFontService,sans-serif" font-weight="400" font-size="24" transform="translate(867.234 356)">x3</text></g><g clip-path="url(#clip4)"><text font-family="DengXian,DengXian_MSFontService,sans-serif" font-weight="400" font-size="24" transform="translate(911.26 356)">y1</text></g><text font-family="DengXian,DengXian_MSFontService,sans-serif" font-weight="400" font-size="24" transform="translate(961.203 356)">3</text><path d="M902.304 455.474 902.304 495.74" stroke="#000000" stroke-width="1.33333" stroke-linejoin="round" stroke-miterlimit="10" fill="none" fill-rule="evenodd"/><path d="M946.664 455.474 946.664 495.74" stroke="#000000" stroke-width="1.33333" stroke-linejoin="round" stroke-miterlimit="10" fill="none" fill-rule="evenodd"/><path d="M857.945 455.474 857.945 495.74" stroke="#000000" stroke-width="1.33333" stroke-linejoin="round" stroke-miterlimit="10" fill="none" fill-rule="evenodd"/><path d="M991.023 455.474 991.023 495.74" stroke="#000000" stroke-width="1.33333" stroke-linejoin="round" stroke-miterlimit="10" fill="none" fill-rule="evenodd"/><path d="M857.278 456.14 991.69 456.14" stroke="#000000" stroke-width="1.33333" stroke-linejoin="round" stroke-miterlimit="10" fill="none" fill-rule="evenodd"/><path d="M857.278 495.074 991.69 495.074" stroke="#000000" stroke-width="1.33333" stroke-linejoin="round" stroke-miterlimit="10" fill="none" fill-rule="evenodd"/><g clip-path="url(#clip5)"><text font-family="DengXian,DengXian_MSFontService,sans-serif" font-weight="400" font-size="24" transform="translate(868.541 483)">x2</text></g><g clip-path="url(#clip6)"><text font-family="DengXian,DengXian_MSFontService,sans-serif" font-weight="400" font-size="24" transform="translate(912.567 483)">y2</text></g><text font-family="DengXian,DengXian_MSFontService,sans-serif" font-weight="400" font-size="24" transform="translate(962.51 483)">6</text><path d="M749.5 349.167 841.555 349.167 841.555 349.833 749.5 349.833ZM840.222 345.5 848.222 349.5 840.222 353.5Z"/><text font-family="DengXian,DengXian_MSFontService,sans-serif" font-weight="400" font-size="24" transform="translate(766.765 332)">聚合</text><path d="M1026.61 289.128 1070.53 289.128 1070.53 328.061 1026.61 328.061Z" fill="#FFFFFF" fill-rule="evenodd"/><path d="M1070.53 289.128 1114.46 289.128 1114.46 328.061 1070.53 328.061Z" fill="#FFFFFF" fill-rule="evenodd"/><path d="M1070.53 288.461 1070.53 328.728" stroke="#000000" stroke-width="1.33333" stroke-linejoin="round" stroke-miterlimit="10" fill="none" fill-rule="evenodd"/><path d="M1114.46 288.461 1114.46 328.728" stroke="#000000" stroke-width="1.33333" stroke-linejoin="round" stroke-miterlimit="10" fill="none" fill-rule="evenodd"/><path d="M1026.61 288.461 1026.61 328.728" stroke="#000000" stroke-width="1.33333" stroke-linejoin="round" stroke-miterlimit="10" fill="none" fill-rule="evenodd"/><path d="M1158.38 288.461 1158.38 328.728" stroke="#000000" stroke-width="1.33333" stroke-linejoin="round" stroke-miterlimit="10" fill="none" fill-rule="evenodd"/><path d="M1025.94 289.128 1159.05 289.128" stroke="#000000" stroke-width="1.33333" stroke-linejoin="round" stroke-miterlimit="10" fill="none" fill-rule="evenodd"/><path d="M1025.94 328.061 1159.05 328.061" stroke="#000000" stroke-width="1.33333" stroke-linejoin="round" stroke-miterlimit="10" fill="none" fill-rule="evenodd"/><g clip-path="url(#clip7)"><text font-family="DengXian,DengXian_MSFontService,sans-serif" font-weight="400" font-size="24" transform="translate(1036.99 316)">x1</text></g><g clip-path="url(#clip8)"><text font-family="DengXian,DengXian_MSFontService,sans-serif" font-weight="400" font-size="24" transform="translate(1080.58 316)">y1</text></g><text font-family="DengXian,DengXian_MSFontService,sans-serif" font-weight="400" font-size="24" transform="translate(1130.09 316)">2</text><path d="M1027.17 328.478 1071.09 328.478 1071.09 367.412 1027.17 367.412Z" fill="#FFFFFF" fill-rule="evenodd"/><path d="M1071.09 328.478 1115.01 328.478 1115.01 367.412 1071.09 367.412Z" fill="#FFFFFF" fill-rule="evenodd"/><path d="M1071.09 327.812 1071.09 368.078" stroke="#000000" stroke-width="1.33333" stroke-linejoin="round" stroke-miterlimit="10" fill="none" fill-rule="evenodd"/><path d="M1115.01 327.812 1115.01 368.078" stroke="#000000" stroke-width="1.33333" stroke-linejoin="round" stroke-miterlimit="10" fill="none" fill-rule="evenodd"/><path d="M1027.17 327.812 1027.17 368.078" stroke="#000000" stroke-width="1.33333" stroke-linejoin="round" stroke-miterlimit="10" fill="none" fill-rule="evenodd"/><path d="M1158.94 327.812 1158.94 368.078" stroke="#000000" stroke-width="1.33333" stroke-linejoin="round" stroke-miterlimit="10" fill="none" fill-rule="evenodd"/><path d="M1026.5 328.478 1159.6 328.478" stroke="#000000" stroke-width="1.33333" stroke-linejoin="round" stroke-miterlimit="10" fill="none" fill-rule="evenodd"/><path d="M1026.5 367.412 1159.6 367.412" stroke="#000000" stroke-width="1.33333" stroke-linejoin="round" stroke-miterlimit="10" fill="none" fill-rule="evenodd"/><g clip-path="url(#clip9)"><text font-family="DengXian,DengXian_MSFontService,sans-serif" font-weight="400" font-size="24" transform="translate(1037.55 355)">x3</text></g><g clip-path="url(#clip10)"><text font-family="DengXian,DengXian_MSFontService,sans-serif" font-weight="400" font-size="24" transform="translate(1081.14 355)">y1</text></g><text font-family="DengXian,DengXian_MSFontService,sans-serif" font-weight="400" font-size="24" transform="translate(1130.64 355)">3</text><path d="M1026.61 367.829 1070.97 367.829 1070.97 406.762 1026.61 406.762Z" fill="#FFFFFF" fill-rule="evenodd"/><path d="M1070.97 367.829 1115.33 367.829 1115.33 406.762 1070.97 406.762Z" fill="#FFFFFF" fill-rule="evenodd"/><path d="M1070.97 367.162 1070.97 407.429" stroke="#000000" stroke-width="1.33333" stroke-linejoin="round" stroke-miterlimit="10" fill="none" fill-rule="evenodd"/><path d="M1115.33 367.162 1115.33 407.429" stroke="#000000" stroke-width="1.33333" stroke-linejoin="round" stroke-miterlimit="10" fill="none" fill-rule="evenodd"/><path d="M1026.61 367.162 1026.61 407.429" stroke="#000000" stroke-width="1.33333" stroke-linejoin="round" stroke-miterlimit="10" fill="none" fill-rule="evenodd"/><path d="M1159.69 367.162 1159.69 407.429" stroke="#000000" stroke-width="1.33333" stroke-linejoin="round" stroke-miterlimit="10" fill="none" fill-rule="evenodd"/><path d="M1025.94 367.829 1160.35 367.829" stroke="#000000" stroke-width="1.33333" stroke-linejoin="round" stroke-miterlimit="10" fill="none" fill-rule="evenodd"/><path d="M1025.94 406.762 1160.35 406.762" stroke="#000000" stroke-width="1.33333" stroke-linejoin="round" stroke-miterlimit="10" fill="none" fill-rule="evenodd"/><g clip-path="url(#clip11)"><text font-family="DengXian,DengXian_MSFontService,sans-serif" font-weight="400" font-size="24" transform="translate(1036.21 395)">x2</text></g><g clip-path="url(#clip12)"><text font-family="DengXian,DengXian_MSFontService,sans-serif" font-weight="400" font-size="24" transform="translate(1080.57 395)">y2</text></g><text font-family="DengXian,DengXian_MSFontService,sans-serif" font-weight="400" font-size="24" transform="translate(1131.18 395)">6<tspan font-size="27" x="-692.549" y="-290">分组聚合</tspan><tspan font-size="27" x="-585.882" y="-290">(group sum (F4) by F1,F2)</tspan></text><rect x="117" y="204" width="133" height="299" stroke="#000000" stroke-width="2" stroke-miterlimit="8" stroke-dasharray="8 6" fill="none"/></g></svg>