<svg width="1280" height="720" xmlns="http://www.w3.org/2000/svg" xmlns:xlink="http://www.w3.org/1999/xlink" overflow="hidden"><defs><clipPath id="clip0"><rect x="0" y="0" width="1280" height="720"/></clipPath></defs><g clip-path="url(#clip0)"><rect x="0" y="0" width="1280" height="720" fill="#FFFFFF"/><rect x="416" y="161" width="183" height="58" stroke="#000000" stroke-width="2" stroke-miterlimit="8" stroke-dasharray="8 6" fill="none"/><path d="M466.5 193.167 492.833 193.167 492.833 193.833 466.5 193.833ZM491.5 189.5 499.5 193.5 491.5 197.5Z"/><path d="M766.5 226.167 792.833 226.167 792.833 226.833 766.5 226.833ZM791.5 222.5 799.5 226.5 791.5 230.5Z"/><text font-family="DengXian,DengXian_MSFontService,sans-serif" font-weight="400" font-size="27" transform="translate(470.35 68)">行内过滤<tspan x="106.667" y="0">(inner on id!=name)</tspan><tspan font-size="24" x="-323.621" y="92">id</tspan><tspan font-size="24" x="-287.991" y="92">name</tspan><tspan font-size="24" x="-213.485" y="92">F3</tspan></text><path d="M183.329 170.837 183.329 366.837" stroke="#000000" stroke-width="1.33333" stroke-linejoin="round" stroke-miterlimit="10" fill="none" fill-rule="evenodd"/><path d="M237.387 170.837 237.387 366.837" stroke="#000000" stroke-width="1.33333" stroke-linejoin="round" stroke-miterlimit="10" fill="none" fill-rule="evenodd"/><path d="M128.604 210.437 292.112 210.437" stroke="#000000" stroke-width="1.33333" stroke-linejoin="round" stroke-miterlimit="10" fill="none" fill-rule="evenodd"/><path d="M128.604 249.37 292.112 249.37" stroke="#000000" stroke-width="1.33333" stroke-linejoin="round" stroke-miterlimit="10" fill="none" fill-rule="evenodd"/><path d="M128.604 288.303 292.112 288.303" stroke="#000000" stroke-width="1.33333" stroke-linejoin="round" stroke-miterlimit="10" fill="none" fill-rule="evenodd"/><path d="M128.604 327.237 292.112 327.237" stroke="#000000" stroke-width="1.33333" stroke-linejoin="round" stroke-miterlimit="10" fill="none" fill-rule="evenodd"/><path d="M129.27 170.837 129.27 366.837" stroke="#000000" stroke-width="1.33333" stroke-linejoin="round" stroke-miterlimit="10" fill="none" fill-rule="evenodd"/><path d="M291.445 170.837 291.445 366.837" stroke="#000000" stroke-width="1.33333" stroke-linejoin="round" stroke-miterlimit="10" fill="none" fill-rule="evenodd"/><path d="M128.604 171.503 292.112 171.503" stroke="#000000" stroke-width="1.33333" stroke-linejoin="round" stroke-miterlimit="10" fill="none" fill-rule="evenodd"/><path d="M128.604 366.17 292.112 366.17" stroke="#000000" stroke-width="1.33333" stroke-linejoin="round" stroke-miterlimit="10" fill="none" fill-rule="evenodd"/><text font-family="DengXian,DengXian_MSFontService,sans-serif" font-weight="400" font-size="24" transform="translate(150.299 198)">a<tspan x="54.0582" y="0">a</tspan><tspan x="107.783" y="0">1</tspan><tspan x="0" y="39">a</tspan><tspan x="53.1415" y="39">b</tspan><tspan x="107.783" y="39">0</tspan><tspan x="-0.916687" y="78">b</tspan><tspan x="54.6415" y="78">c</tspan><tspan x="107.783" y="78">0</tspan><tspan x="-0.916687" y="117">b</tspan><tspan x="53.1415" y="117">b</tspan><tspan x="107.783" y="117">0</tspan><tspan x="0.583313" y="156">c</tspan><tspan x="54.0582" y="156">a</tspan><tspan x="107.783" y="156">0</tspan></text><path d="M480.884 170.836 480.884 366.836" stroke="#000000" stroke-width="1.33333" stroke-linejoin="round" stroke-miterlimit="10" fill="none" fill-rule="evenodd"/><path d="M534.942 170.836 534.942 366.836" stroke="#000000" stroke-width="1.33333" stroke-linejoin="round" stroke-miterlimit="10" fill="none" fill-rule="evenodd"/><path d="M426.159 210.436 589.667 210.436" stroke="#000000" stroke-width="1.33333" stroke-linejoin="round" stroke-miterlimit="10" fill="none" fill-rule="evenodd"/><path d="M426.159 249.37 589.667 249.37" stroke="#000000" stroke-width="1.33333" stroke-linejoin="round" stroke-miterlimit="10" fill="none" fill-rule="evenodd"/><path d="M426.159 288.303 589.667 288.303" stroke="#000000" stroke-width="1.33333" stroke-linejoin="round" stroke-miterlimit="10" fill="none" fill-rule="evenodd"/><path d="M426.159 327.236 589.667 327.236" stroke="#000000" stroke-width="1.33333" stroke-linejoin="round" stroke-miterlimit="10" fill="none" fill-rule="evenodd"/><path d="M426.825 170.836 426.825 366.836" stroke="#000000" stroke-width="1.33333" stroke-linejoin="round" stroke-miterlimit="10" fill="none" fill-rule="evenodd"/><path d="M589 170.836 589 366.836" stroke="#000000" stroke-width="1.33333" stroke-linejoin="round" stroke-miterlimit="10" fill="none" fill-rule="evenodd"/><path d="M426.159 171.503 589.667 171.503" stroke="#000000" stroke-width="1.33333" stroke-linejoin="round" stroke-miterlimit="10" fill="none" fill-rule="evenodd"/><path d="M426.159 366.17 589.667 366.17" stroke="#000000" stroke-width="1.33333" stroke-linejoin="round" stroke-miterlimit="10" fill="none" fill-rule="evenodd"/><text font-family="DengXian,DengXian_MSFontService,sans-serif" font-weight="400" font-size="24" transform="translate(447.854 198)">a<tspan x="54.0582" y="0">a</tspan><tspan x="107.783" y="0">1</tspan><tspan x="0" y="39">a</tspan><tspan x="53.1415" y="39">b</tspan><tspan x="107.783" y="39">0</tspan><tspan x="-0.916687" y="78">b</tspan><tspan x="54.6415" y="78">c</tspan><tspan x="107.783" y="78">0</tspan><tspan x="-0.916687" y="117">b</tspan><tspan x="53.1415" y="117">b</tspan><tspan x="107.783" y="117">0</tspan><tspan x="0.583313" y="156">c</tspan><tspan x="54.0582" y="156">a</tspan><tspan x="107.783" y="156">0</tspan></text><path d="M729.521 165.636 783.58 165.636 783.58 204.57 729.521 204.57Z" fill="#FF0000" fill-rule="evenodd"/><path d="M783.58 165.636 837.638 165.636 837.638 204.57 783.58 204.57Z" fill="#FF0000" fill-rule="evenodd"/><path d="M837.638 165.636 891.696 165.636 891.696 204.57 837.638 204.57Z" fill="#FF0000" fill-rule="evenodd"/><path d="M783.58 164.97 783.58 360.97" stroke="#000000" stroke-width="1.33333" stroke-linejoin="round" stroke-miterlimit="10" fill="none" fill-rule="evenodd"/><path d="M837.638 164.97 837.638 360.97" stroke="#000000" stroke-width="1.33333" stroke-linejoin="round" stroke-miterlimit="10" fill="none" fill-rule="evenodd"/><path d="M728.855 204.57 892.363 204.57" stroke="#000000" stroke-width="1.33333" stroke-linejoin="round" stroke-miterlimit="10" fill="none" fill-rule="evenodd"/><path d="M728.855 243.503 892.363 243.503" stroke="#000000" stroke-width="1.33333" stroke-linejoin="round" stroke-miterlimit="10" fill="none" fill-rule="evenodd"/><path d="M728.855 282.436 892.363 282.436" stroke="#000000" stroke-width="1.33333" stroke-linejoin="round" stroke-miterlimit="10" fill="none" fill-rule="evenodd"/><path d="M728.855 321.37 892.363 321.37" stroke="#000000" stroke-width="1.33333" stroke-linejoin="round" stroke-miterlimit="10" fill="none" fill-rule="evenodd"/><path d="M729.521 164.97 729.521 360.97" stroke="#000000" stroke-width="1.33333" stroke-linejoin="round" stroke-miterlimit="10" fill="none" fill-rule="evenodd"/><path d="M891.696 164.97 891.696 360.97" stroke="#000000" stroke-width="1.33333" stroke-linejoin="round" stroke-miterlimit="10" fill="none" fill-rule="evenodd"/><path d="M728.855 165.636 892.363 165.636" stroke="#000000" stroke-width="1.33333" stroke-linejoin="round" stroke-miterlimit="10" fill="none" fill-rule="evenodd"/><path d="M728.855 360.303 892.363 360.303" stroke="#000000" stroke-width="1.33333" stroke-linejoin="round" stroke-miterlimit="10" fill="none" fill-rule="evenodd"/><text font-family="DengXian,DengXian_MSFontService,sans-serif" font-weight="400" font-size="24" transform="translate(750.551 192)">a<tspan x="54.0582" y="0">a</tspan><tspan x="107.783" y="0">1</tspan><tspan x="0" y="39">a</tspan><tspan x="53.1415" y="39">b</tspan><tspan x="107.783" y="39">0</tspan><tspan x="-0.916687" y="78">b</tspan><tspan x="54.6415" y="78">c</tspan><tspan x="107.783" y="78">0</tspan><tspan x="-0.916687" y="117">b</tspan><tspan x="53.1415" y="117">b</tspan><tspan x="107.783" y="117">0</tspan><tspan x="0.583313" y="156">c</tspan><tspan x="54.0582" y="156">a</tspan><tspan x="107.783" y="156">0</tspan></text><path d="M129.27 440.546 183.329 440.546 183.329 479.479 129.27 479.479Z" fill="#FF0000" fill-rule="evenodd"/><path d="M183.329 440.546 237.387 440.546 237.387 479.479 183.329 479.479Z" fill="#FF0000" fill-rule="evenodd"/><path d="M237.387 440.546 291.445 440.546 291.445 479.479 237.387 479.479Z" fill="#FF0000" fill-rule="evenodd"/><path d="M183.329 439.879 183.329 635.879" stroke="#000000" stroke-width="1.33333" stroke-linejoin="round" stroke-miterlimit="10" fill="none" fill-rule="evenodd"/><path d="M237.387 439.879 237.387 635.879" stroke="#000000" stroke-width="1.33333" stroke-linejoin="round" stroke-miterlimit="10" fill="none" fill-rule="evenodd"/><path d="M128.604 479.479 292.112 479.479" stroke="#000000" stroke-width="1.33333" stroke-linejoin="round" stroke-miterlimit="10" fill="none" fill-rule="evenodd"/><path d="M128.604 518.412 292.112 518.412" stroke="#000000" stroke-width="1.33333" stroke-linejoin="round" stroke-miterlimit="10" fill="none" fill-rule="evenodd"/><path d="M128.604 557.346 292.112 557.346" stroke="#000000" stroke-width="1.33333" stroke-linejoin="round" stroke-miterlimit="10" fill="none" fill-rule="evenodd"/><path d="M128.604 596.279 292.112 596.279" stroke="#000000" stroke-width="1.33333" stroke-linejoin="round" stroke-miterlimit="10" fill="none" fill-rule="evenodd"/><path d="M129.27 439.879 129.27 635.879" stroke="#000000" stroke-width="1.33333" stroke-linejoin="round" stroke-miterlimit="10" fill="none" fill-rule="evenodd"/><path d="M291.445 439.879 291.445 635.879" stroke="#000000" stroke-width="1.33333" stroke-linejoin="round" stroke-miterlimit="10" fill="none" fill-rule="evenodd"/><path d="M128.604 440.546 292.112 440.546" stroke="#000000" stroke-width="1.33333" stroke-linejoin="round" stroke-miterlimit="10" fill="none" fill-rule="evenodd"/><path d="M128.604 635.212 292.112 635.212" stroke="#000000" stroke-width="1.33333" stroke-linejoin="round" stroke-miterlimit="10" fill="none" fill-rule="evenodd"/><text font-family="DengXian,DengXian_MSFontService,sans-serif" font-weight="400" font-size="24" transform="translate(150.299 467)">a<tspan x="54.0582" y="0">a</tspan><tspan x="107.783" y="0">1</tspan><tspan x="0" y="39">a</tspan><tspan x="53.1415" y="39">b</tspan><tspan x="107.783" y="39">0</tspan><tspan x="-0.916687" y="78">b</tspan><tspan x="54.6415" y="78">c</tspan><tspan x="107.783" y="78">0</tspan><tspan x="-0.916687" y="117">b</tspan><tspan x="53.1415" y="117">b</tspan><tspan x="107.783" y="117">0</tspan><tspan x="0.583313" y="156">c</tspan><tspan x="54.0582" y="156">a</tspan><tspan x="107.783" y="156">0</tspan></text><path d="M426.825 440.546 480.884 440.546 480.884 479.479 426.825 479.479Z" fill="#FF0000" fill-rule="evenodd"/><path d="M480.884 440.546 534.942 440.546 534.942 479.479 480.884 479.479Z" fill="#FF0000" fill-rule="evenodd"/><path d="M534.942 440.546 589 440.546 589 479.479 534.942 479.479Z" fill="#FF0000" fill-rule="evenodd"/><path d="M426.825 557.346 480.884 557.346 480.884 596.279 426.825 596.279Z" fill="#FF0000" fill-rule="evenodd"/><path d="M480.884 557.346 534.942 557.346 534.942 596.279 480.884 596.279Z" fill="#FF0000" fill-rule="evenodd"/><path d="M534.942 557.346 589 557.346 589 596.279 534.942 596.279Z" fill="#FF0000" fill-rule="evenodd"/><path d="M480.884 439.879 480.884 635.879" stroke="#000000" stroke-width="1.33333" stroke-linejoin="round" stroke-miterlimit="10" fill="none" fill-rule="evenodd"/><path d="M534.942 439.879 534.942 635.879" stroke="#000000" stroke-width="1.33333" stroke-linejoin="round" stroke-miterlimit="10" fill="none" fill-rule="evenodd"/><path d="M426.159 479.479 589.667 479.479" stroke="#000000" stroke-width="1.33333" stroke-linejoin="round" stroke-miterlimit="10" fill="none" fill-rule="evenodd"/><path d="M426.159 518.412 589.667 518.412" stroke="#000000" stroke-width="1.33333" stroke-linejoin="round" stroke-miterlimit="10" fill="none" fill-rule="evenodd"/><path d="M426.159 557.346 589.667 557.346" stroke="#000000" stroke-width="1.33333" stroke-linejoin="round" stroke-miterlimit="10" fill="none" fill-rule="evenodd"/><path d="M426.159 596.279 589.667 596.279" stroke="#000000" stroke-width="1.33333" stroke-linejoin="round" stroke-miterlimit="10" fill="none" fill-rule="evenodd"/><path d="M426.825 439.879 426.825 635.879" stroke="#000000" stroke-width="1.33333" stroke-linejoin="round" stroke-miterlimit="10" fill="none" fill-rule="evenodd"/><path d="M589 439.879 589 635.879" stroke="#000000" stroke-width="1.33333" stroke-linejoin="round" stroke-miterlimit="10" fill="none" fill-rule="evenodd"/><path d="M426.159 440.546 589.667 440.546" stroke="#000000" stroke-width="1.33333" stroke-linejoin="round" stroke-miterlimit="10" fill="none" fill-rule="evenodd"/><path d="M426.159 635.212 589.667 635.212" stroke="#000000" stroke-width="1.33333" stroke-linejoin="round" stroke-miterlimit="10" fill="none" fill-rule="evenodd"/><text font-family="DengXian,DengXian_MSFontService,sans-serif" font-weight="400" font-size="24" transform="translate(447.854 467)">a<tspan x="54.0582" y="0">a</tspan><tspan x="107.783" y="0">1</tspan><tspan x="0" y="39">a</tspan><tspan x="53.1415" y="39">b</tspan><tspan x="107.783" y="39">0</tspan><tspan x="-0.916687" y="78">b</tspan><tspan x="54.6415" y="78">c</tspan><tspan x="107.783" y="78">0</tspan><tspan x="-0.916687" y="117">b</tspan><tspan x="53.1415" y="117">b</tspan><tspan x="107.783" y="117">0</tspan><tspan x="0.583313" y="156">c</tspan><tspan x="54.0582" y="156">a</tspan><tspan x="107.783" y="156">0</tspan></text><path d="M1004.07 165.333 1058.13 165.333 1058.13 204.267 1004.07 204.267Z" fill="#FF0000" fill-rule="evenodd"/><path d="M1058.13 165.333 1112.19 165.333 1112.19 204.267 1058.13 204.267Z" fill="#FF0000" fill-rule="evenodd"/><path d="M1112.19 165.333 1166.24 165.333 1166.24 204.267 1112.19 204.267Z" fill="#FF0000" fill-rule="evenodd"/><path d="M1058.13 164.667 1058.13 360.667" stroke="#000000" stroke-width="1.33333" stroke-linejoin="round" stroke-miterlimit="10" fill="none" fill-rule="evenodd"/><path d="M1112.19 164.667 1112.19 360.667" stroke="#000000" stroke-width="1.33333" stroke-linejoin="round" stroke-miterlimit="10" fill="none" fill-rule="evenodd"/><path d="M1003.4 204.267 1166.91 204.267" stroke="#000000" stroke-width="1.33333" stroke-linejoin="round" stroke-miterlimit="10" fill="none" fill-rule="evenodd"/><path d="M1003.4 243.2 1166.91 243.2" stroke="#000000" stroke-width="1.33333" stroke-linejoin="round" stroke-miterlimit="10" fill="none" fill-rule="evenodd"/><path d="M1003.4 282.133 1166.91 282.133" stroke="#000000" stroke-width="1.33333" stroke-linejoin="round" stroke-miterlimit="10" fill="none" fill-rule="evenodd"/><path d="M1003.4 321.067 1166.91 321.067" stroke="#000000" stroke-width="1.33333" stroke-linejoin="round" stroke-miterlimit="10" fill="none" fill-rule="evenodd"/><path d="M1004.07 164.667 1004.07 360.667" stroke="#000000" stroke-width="1.33333" stroke-linejoin="round" stroke-miterlimit="10" fill="none" fill-rule="evenodd"/><path d="M1166.24 164.667 1166.24 360.667" stroke="#000000" stroke-width="1.33333" stroke-linejoin="round" stroke-miterlimit="10" fill="none" fill-rule="evenodd"/><path d="M1003.4 165.333 1166.91 165.333" stroke="#000000" stroke-width="1.33333" stroke-linejoin="round" stroke-miterlimit="10" fill="none" fill-rule="evenodd"/><path d="M1003.4 360 1166.91 360" stroke="#000000" stroke-width="1.33333" stroke-linejoin="round" stroke-miterlimit="10" fill="none" fill-rule="evenodd"/><text font-family="DengXian,DengXian_MSFontService,sans-serif" font-weight="400" font-size="24" transform="translate(1025.1 192)">a<tspan x="54.0582" y="0">a</tspan><tspan x="107.783" y="0">1</tspan><tspan x="0" y="39">a</tspan><tspan x="53.1415" y="39">b</tspan><tspan x="107.783" y="39">0</tspan><tspan x="-0.916626" y="78">b</tspan><tspan x="54.6415" y="78">c</tspan><tspan x="107.783" y="78">0</tspan><tspan x="-0.916626" y="117">b</tspan><tspan x="53.1415" y="117">b</tspan><tspan x="107.783" y="117">0</tspan><tspan x="0.583374" y="156">c</tspan><tspan x="54.0582" y="156">a</tspan><tspan x="107.783" y="156">0</tspan></text><rect x="719" y="197" width="183" height="58" stroke="#000000" stroke-width="2" stroke-miterlimit="8" stroke-dasharray="8 6" fill="none"/><rect x="994" y="234" width="183" height="58" stroke="#000000" stroke-width="2" stroke-miterlimit="8" stroke-dasharray="8 6" fill="none"/><rect x="118" y="547" width="183" height="58" stroke="#000000" stroke-width="2" stroke-miterlimit="8" stroke-dasharray="8 6" fill="none"/><rect x="416" y="585" width="183" height="58" stroke="#000000" stroke-width="2" stroke-miterlimit="8" stroke-dasharray="8 6" fill="none"/><path d="M1045.5 263.167 1071.83 263.167 1071.83 263.833 1045.5 263.833ZM1070.5 259.5 1078.5 263.5 1070.5 267.5Z"/><path d="M166.5 577.167 192.833 577.167 192.833 577.833 166.5 577.833ZM191.5 573.5 199.5 577.5 191.5 581.5Z"/><path d="M463.5 618.167 489.833 618.167 489.833 618.833 463.5 618.833ZM488.5 614.5 496.5 618.5 488.5 622.5Z"/><path d="M783.58 478.812 783.58 596.945" stroke="#000000" stroke-width="1.33333" stroke-linejoin="round" stroke-miterlimit="10" fill="none" fill-rule="evenodd"/><path d="M837.638 478.812 837.638 596.945" stroke="#000000" stroke-width="1.33333" stroke-linejoin="round" stroke-miterlimit="10" fill="none" fill-rule="evenodd"/><path d="M728.855 518.412 892.363 518.412" stroke="#000000" stroke-width="1.33333" stroke-linejoin="round" stroke-miterlimit="10" fill="none" fill-rule="evenodd"/><path d="M728.855 557.346 892.363 557.346" stroke="#000000" stroke-width="1.33333" stroke-linejoin="round" stroke-miterlimit="10" fill="none" fill-rule="evenodd"/><path d="M729.521 478.812 729.521 596.945" stroke="#000000" stroke-width="1.33333" stroke-linejoin="round" stroke-miterlimit="10" fill="none" fill-rule="evenodd"/><path d="M891.696 478.812 891.696 596.945" stroke="#000000" stroke-width="1.33333" stroke-linejoin="round" stroke-miterlimit="10" fill="none" fill-rule="evenodd"/><path d="M728.855 479.479 892.363 479.479" stroke="#000000" stroke-width="1.33333" stroke-linejoin="round" stroke-miterlimit="10" fill="none" fill-rule="evenodd"/><path d="M728.855 596.279 892.363 596.279" stroke="#000000" stroke-width="1.33333" stroke-linejoin="round" stroke-miterlimit="10" fill="none" fill-rule="evenodd"/><text font-family="DengXian,DengXian_MSFontService,sans-serif" font-weight="400" font-size="24" transform="translate(750.551 506)">a<tspan x="53.1415" y="0">b</tspan><tspan x="107.783" y="0">0</tspan><tspan x="-0.916687" y="39">b</tspan><tspan x="54.6415" y="39">c</tspan><tspan x="107.783" y="39">0</tspan><tspan x="0.583313" y="78">c</tspan><tspan x="54.0582" y="78">a</tspan><tspan x="107.783" y="78">0</tspan></text><path d="M475.5 184.5 485.735 202.843" stroke="#000000" stroke-width="0.666667" stroke-miterlimit="8" fill="none" fill-rule="evenodd"/><path d="M0 0 10.2351 17.1213" stroke="#000000" stroke-width="0.666667" stroke-miterlimit="8" fill="none" fill-rule="evenodd" transform="matrix(1 0 0 -1 475.5 201.621)"/><path d="M175.5 568.5 185.735 586.843" stroke="#000000" stroke-width="0.666667" stroke-miterlimit="8" fill="none" fill-rule="evenodd"/><path d="M0 0 10.2351 17.1213" stroke="#000000" stroke-width="0.666667" stroke-miterlimit="8" fill="none" fill-rule="evenodd" transform="matrix(1 0 0 -1 175.5 585.621)"/><path d="M316.5 273.167 386.447 273.167 386.447 273.833 316.5 273.833ZM385.113 269.5 393.113 273.5 385.113 277.5Z"/><path d="M615.5 273.167 685.447 273.167 685.447 273.833 615.5 273.833ZM684.113 269.5 692.113 273.5 684.113 277.5Z"/><path d="M902.5 273.167 972.447 273.167 972.447 273.833 902.5 273.833ZM971.113 269.5 979.113 273.5 971.113 277.5Z"/><path d="M316.5 546.167 386.447 546.167 386.447 546.833 316.5 546.833ZM385.113 542.5 393.113 546.5 385.113 550.5Z"/><path d="M615.5 544.167 685.447 544.167 685.447 544.833 615.5 544.833ZM684.113 540.5 692.113 544.5 684.113 548.5Z"/></g></svg>