<svg width="1280" height="720" xmlns="http://www.w3.org/2000/svg" xmlns:xlink="http://www.w3.org/1999/xlink" overflow="hidden"><defs><clipPath id="clip0"><rect x="0" y="0" width="1280" height="720"/></clipPath></defs><g clip-path="url(#clip0)"><rect x="0" y="0" width="1280" height="720" fill="#FFFFFF"/><text font-family="DengXian,DengXian_MSFontService,sans-serif" font-weight="400" font-size="24" transform="translate(231.389 232)">F1<tspan x="69.8588" y="0">F2</tspan><tspan x="139.718" y="0">F3</tspan></text><path d="M277.513 253.382 277.513 449.382" stroke="#000000" stroke-width="1.33333" stroke-linejoin="round" stroke-miterlimit="10" fill="none" fill-rule="evenodd"/><path d="M349.573 253.382 349.573 449.382" stroke="#000000" stroke-width="1.33333" stroke-linejoin="round" stroke-miterlimit="10" fill="none" fill-rule="evenodd"/><path d="M204.786 292.982 422.3 292.982" stroke="#000000" stroke-width="1.33333" stroke-linejoin="round" stroke-miterlimit="10" fill="none" fill-rule="evenodd"/><path d="M204.786 331.915 422.3 331.915" stroke="#000000" stroke-width="1.33333" stroke-linejoin="round" stroke-miterlimit="10" fill="none" fill-rule="evenodd"/><path d="M204.786 370.849 422.3 370.849" stroke="#000000" stroke-width="1.33333" stroke-linejoin="round" stroke-miterlimit="10" fill="none" fill-rule="evenodd"/><path d="M204.786 409.782 422.3 409.782" stroke="#000000" stroke-width="1.33333" stroke-linejoin="round" stroke-miterlimit="10" fill="none" fill-rule="evenodd"/><path d="M205.453 253.382 205.453 449.382" stroke="#000000" stroke-width="1.33333" stroke-linejoin="round" stroke-miterlimit="10" fill="none" fill-rule="evenodd"/><path d="M421.634 253.382 421.634 449.382" stroke="#000000" stroke-width="1.33333" stroke-linejoin="round" stroke-miterlimit="10" fill="none" fill-rule="evenodd"/><path d="M204.786 254.049 422.3 254.049" stroke="#000000" stroke-width="1.33333" stroke-linejoin="round" stroke-miterlimit="10" fill="none" fill-rule="evenodd"/><path d="M204.786 448.715 422.3 448.715" stroke="#000000" stroke-width="1.33333" stroke-linejoin="round" stroke-miterlimit="10" fill="none" fill-rule="evenodd"/><text font-family="DengXian,DengXian_MSFontService,sans-serif" font-weight="400" font-size="24" transform="translate(235.483 281)">a<tspan x="71.727" y="0">1</tspan><tspan x="143.787" y="0">0</tspan><tspan x="-0.916702" y="39">b</tspan><tspan x="71.727" y="39">2</tspan><tspan x="143.787" y="39">0</tspan><tspan x="0.583298" y="78">c</tspan><tspan x="71.727" y="78">3</tspan><tspan x="143.787" y="78">0</tspan><tspan x="-0.916702" y="117">d</tspan><tspan x="71.727" y="117">4</tspan><tspan x="143.787" y="117">0</tspan><tspan x="-0.166733" y="156">e</tspan><tspan x="71.727" y="156">5</tspan><tspan x="143.787" y="156">0</tspan><tspan x="688.904" y="-49">F1</tspan></text><path d="M897.784 292.982 971.178 292.982" stroke="#000000" stroke-width="1.33333" stroke-linejoin="round" stroke-miterlimit="10" fill="none" fill-rule="evenodd"/><path d="M897.784 331.915 971.178 331.915" stroke="#000000" stroke-width="1.33333" stroke-linejoin="round" stroke-miterlimit="10" fill="none" fill-rule="evenodd"/><path d="M897.784 370.849 971.178 370.849" stroke="#000000" stroke-width="1.33333" stroke-linejoin="round" stroke-miterlimit="10" fill="none" fill-rule="evenodd"/><path d="M897.784 409.782 971.178 409.782" stroke="#000000" stroke-width="1.33333" stroke-linejoin="round" stroke-miterlimit="10" fill="none" fill-rule="evenodd"/><path d="M898.451 253.382 898.451 449.382" stroke="#000000" stroke-width="1.33333" stroke-linejoin="round" stroke-miterlimit="10" fill="none" fill-rule="evenodd"/><path d="M970.511 253.382 970.511 449.382" stroke="#000000" stroke-width="1.33333" stroke-linejoin="round" stroke-miterlimit="10" fill="none" fill-rule="evenodd"/><path d="M897.784 254.049 971.178 254.049" stroke="#000000" stroke-width="1.33333" stroke-linejoin="round" stroke-miterlimit="10" fill="none" fill-rule="evenodd"/><path d="M897.784 448.715 971.178 448.715" stroke="#000000" stroke-width="1.33333" stroke-linejoin="round" stroke-miterlimit="10" fill="none" fill-rule="evenodd"/><text font-family="DengXian,DengXian_MSFontService,sans-serif" font-weight="400" font-size="24" transform="translate(928.481 281)">a<tspan x="-0.916748" y="39">b</tspan><tspan x="0.583252" y="78">c</tspan><tspan x="-0.916748" y="117">d</tspan><tspan x="-0.166748" y="156">e</tspan><tspan x="-325.01" y="42">投影</tspan>F1</text><path d="M554.5 344.167 720.261 344.167 720.261 344.833 554.5 344.833ZM718.927 340.5 726.927 344.5 718.927 348.5Z"/><text font-family="DengXian,DengXian_MSFontService,sans-serif" font-weight="400" font-size="27" transform="translate(612.979 105)">投影</text><rect x="194" y="247" width="96" height="212" stroke="#000000" stroke-width="2" stroke-miterlimit="8" stroke-dasharray="8 6" fill="none"/></g></svg>