<svg width="1280" height="720" xmlns="http://www.w3.org/2000/svg" xmlns:xlink="http://www.w3.org/1999/xlink" overflow="hidden"><defs><clipPath id="clip0"><rect x="0" y="0" width="1280" height="720"/></clipPath></defs><g clip-path="url(#clip0)"><rect x="0" y="0" width="1280" height="720" fill="#FFFFFF"/><text font-family="DengXian,DengXian_MSFontService,sans-serif" font-weight="400" font-size="24" transform="translate(213.485 242)">F1<tspan x="69.8588" y="0">F2</tspan><tspan x="139.718" y="0">F3</tspan></text><path d="M259.609 263.382 259.609 459.382" stroke="#000000" stroke-width="1.33333" stroke-linejoin="round" stroke-miterlimit="10" fill="none" fill-rule="evenodd"/><path d="M331.669 263.382 331.669 459.382" stroke="#000000" stroke-width="1.33333" stroke-linejoin="round" stroke-miterlimit="10" fill="none" fill-rule="evenodd"/><path d="M186.882 302.982 404.397 302.982" stroke="#000000" stroke-width="1.33333" stroke-linejoin="round" stroke-miterlimit="10" fill="none" fill-rule="evenodd"/><path d="M186.882 341.915 404.397 341.915" stroke="#000000" stroke-width="1.33333" stroke-linejoin="round" stroke-miterlimit="10" fill="none" fill-rule="evenodd"/><path d="M186.882 380.848 404.397 380.848" stroke="#000000" stroke-width="1.33333" stroke-linejoin="round" stroke-miterlimit="10" fill="none" fill-rule="evenodd"/><path d="M186.882 419.782 404.397 419.782" stroke="#000000" stroke-width="1.33333" stroke-linejoin="round" stroke-miterlimit="10" fill="none" fill-rule="evenodd"/><path d="M187.549 263.382 187.549 459.382" stroke="#000000" stroke-width="1.33333" stroke-linejoin="round" stroke-miterlimit="10" fill="none" fill-rule="evenodd"/><path d="M403.73 263.382 403.73 459.382" stroke="#000000" stroke-width="1.33333" stroke-linejoin="round" stroke-miterlimit="10" fill="none" fill-rule="evenodd"/><path d="M186.882 264.048 404.397 264.048" stroke="#000000" stroke-width="1.33333" stroke-linejoin="round" stroke-miterlimit="10" fill="none" fill-rule="evenodd"/><path d="M186.882 458.715 404.397 458.715" stroke="#000000" stroke-width="1.33333" stroke-linejoin="round" stroke-miterlimit="10" fill="none" fill-rule="evenodd"/><text font-family="DengXian,DengXian_MSFontService,sans-serif" font-weight="400" font-size="24" transform="translate(217.579 291)">a<tspan x="71.7271" y="0">1</tspan><tspan x="143.787" y="0">0</tspan><tspan x="-0.916687" y="39">b</tspan><tspan x="71.7271" y="39">2</tspan><tspan x="143.787" y="39">0</tspan><tspan x="0.583313" y="78">c</tspan><tspan x="71.7271" y="78">3</tspan><tspan x="143.787" y="78">0</tspan><tspan x="-0.916687" y="117">d</tspan><tspan x="71.7271" y="117">4</tspan><tspan x="143.787" y="117">0</tspan><tspan x="-0.166718" y="156">e</tspan><tspan x="71.7271" y="156">5</tspan><tspan x="143.787" y="156">0</tspan><tspan x="334.983" y="44">重计算</tspan>F2<tspan x="431.149" y="44">为</tspan>F2+1</text><path d="M554.5 361.167 720.261 361.167 720.261 361.833 554.5 361.833ZM718.927 357.5 726.927 361.5 718.927 365.5Z"/><text font-family="DengXian,DengXian_MSFontService,sans-serif" font-weight="400" font-size="24" transform="translate(902.207 253)">F1<tspan x="69.8588" y="0">F2</tspan><tspan x="139.718" y="0">F3</tspan></text><path d="M948.33 273.8 948.33 469.8" stroke="#000000" stroke-width="1.33333" stroke-linejoin="round" stroke-miterlimit="10" fill="none" fill-rule="evenodd"/><path d="M1020.39 273.8 1020.39 469.8" stroke="#000000" stroke-width="1.33333" stroke-linejoin="round" stroke-miterlimit="10" fill="none" fill-rule="evenodd"/><path d="M875.603 313.4 1093.12 313.4" stroke="#000000" stroke-width="1.33333" stroke-linejoin="round" stroke-miterlimit="10" fill="none" fill-rule="evenodd"/><path d="M875.603 352.333 1093.12 352.333" stroke="#000000" stroke-width="1.33333" stroke-linejoin="round" stroke-miterlimit="10" fill="none" fill-rule="evenodd"/><path d="M875.603 391.267 1093.12 391.267" stroke="#000000" stroke-width="1.33333" stroke-linejoin="round" stroke-miterlimit="10" fill="none" fill-rule="evenodd"/><path d="M875.603 430.2 1093.12 430.2" stroke="#000000" stroke-width="1.33333" stroke-linejoin="round" stroke-miterlimit="10" fill="none" fill-rule="evenodd"/><path d="M876.27 273.8 876.27 469.8" stroke="#000000" stroke-width="1.33333" stroke-linejoin="round" stroke-miterlimit="10" fill="none" fill-rule="evenodd"/><path d="M1092.45 273.8 1092.45 469.8" stroke="#000000" stroke-width="1.33333" stroke-linejoin="round" stroke-miterlimit="10" fill="none" fill-rule="evenodd"/><path d="M875.603 274.467 1093.12 274.467" stroke="#000000" stroke-width="1.33333" stroke-linejoin="round" stroke-miterlimit="10" fill="none" fill-rule="evenodd"/><path d="M875.603 469.133 1093.12 469.133" stroke="#000000" stroke-width="1.33333" stroke-linejoin="round" stroke-miterlimit="10" fill="none" fill-rule="evenodd"/><text font-family="DengXian,DengXian_MSFontService,sans-serif" font-weight="400" font-size="24" transform="translate(906.3 301)">a<tspan x="71.727" y="0">2</tspan><tspan x="143.787" y="0">0</tspan><tspan x="-0.916687" y="39">b</tspan><tspan x="71.727" y="39">3</tspan><tspan x="143.787" y="39">0</tspan><tspan x="0.583313" y="78">c</tspan><tspan x="71.727" y="78">4</tspan><tspan x="143.787" y="78">0</tspan><tspan x="-0.916687" y="117">d</tspan><tspan x="71.727" y="117">5</tspan><tspan x="143.787" y="117">0</tspan><tspan x="-0.166748" y="156">e</tspan><tspan x="71.727" y="156">6</tspan><tspan x="143.787" y="156">0</tspan><tspan font-size="27" x="-306.785" y="-196">重计算</tspan></text><rect x="246" y="257" width="96" height="212" stroke="#000000" stroke-width="2" stroke-miterlimit="8" stroke-dasharray="8 6" fill="none"/></g></svg>