<svg width="1280" height="720" xmlns="http://www.w3.org/2000/svg" xmlns:xlink="http://www.w3.org/1999/xlink" overflow="hidden"><defs><clipPath id="clip0"><rect x="0" y="0" width="1280" height="720"/></clipPath></defs><g clip-path="url(#clip0)"><rect x="0" y="0" width="1280" height="720" fill="#FFFFFF"/><text font-family="DengXian,DengXian_MSFontService,sans-serif" font-weight="400" font-size="24" transform="translate(225.219 232)">F1<tspan x="69.8588" y="0">F2</tspan><tspan x="139.718" y="0">F3</tspan></text><path d="M271.342 253.382 271.342 449.382" stroke="#000000" stroke-width="1.33333" stroke-linejoin="round" stroke-miterlimit="10" fill="none" fill-rule="evenodd"/><path d="M343.403 253.382 343.403 449.382" stroke="#000000" stroke-width="1.33333" stroke-linejoin="round" stroke-miterlimit="10" fill="none" fill-rule="evenodd"/><path d="M198.615 292.982 416.13 292.982" stroke="#000000" stroke-width="1.33333" stroke-linejoin="round" stroke-miterlimit="10" fill="none" fill-rule="evenodd"/><path d="M198.615 331.915 416.13 331.915" stroke="#000000" stroke-width="1.33333" stroke-linejoin="round" stroke-miterlimit="10" fill="none" fill-rule="evenodd"/><path d="M198.615 370.849 416.13 370.849" stroke="#000000" stroke-width="1.33333" stroke-linejoin="round" stroke-miterlimit="10" fill="none" fill-rule="evenodd"/><path d="M198.615 409.782 416.13 409.782" stroke="#000000" stroke-width="1.33333" stroke-linejoin="round" stroke-miterlimit="10" fill="none" fill-rule="evenodd"/><path d="M199.282 253.382 199.282 449.382" stroke="#000000" stroke-width="1.33333" stroke-linejoin="round" stroke-miterlimit="10" fill="none" fill-rule="evenodd"/><path d="M415.463 253.382 415.463 449.382" stroke="#000000" stroke-width="1.33333" stroke-linejoin="round" stroke-miterlimit="10" fill="none" fill-rule="evenodd"/><path d="M198.615 254.049 416.13 254.049" stroke="#000000" stroke-width="1.33333" stroke-linejoin="round" stroke-miterlimit="10" fill="none" fill-rule="evenodd"/><path d="M198.615 448.715 416.13 448.715" stroke="#000000" stroke-width="1.33333" stroke-linejoin="round" stroke-miterlimit="10" fill="none" fill-rule="evenodd"/><text font-family="DengXian,DengXian_MSFontService,sans-serif" font-weight="400" font-size="24" transform="translate(229.312 281)">a<tspan x="71.727" y="0">1</tspan><tspan x="143.787" y="0">0</tspan><tspan x="-0.916702" y="39">b</tspan><tspan x="71.727" y="39">2</tspan><tspan x="143.787" y="39">0</tspan><tspan x="0.583298" y="78">c</tspan><tspan x="71.727" y="78">3</tspan><tspan x="143.787" y="78">0</tspan><tspan x="-0.916702" y="117">d</tspan><tspan x="71.727" y="117">4</tspan><tspan x="143.787" y="117">0</tspan><tspan x="-0.166718" y="156">e</tspan><tspan x="71.727" y="156">5</tspan><tspan x="143.787" y="156">0</tspan><tspan x="340.331" y="44">重命名</tspan>F1<tspan x="436.498" y="44">为</tspan>fa</text><path d="M554.5 349.167 720.261 349.167 720.261 349.833 554.5 349.833ZM718.927 345.5 726.927 349.5 718.927 353.5Z"/><text font-family="DengXian,DengXian_MSFontService,sans-serif" font-weight="400" font-size="24" transform="translate(890.474 232)">fa<tspan x="69.8588" y="0">F2</tspan><tspan x="139.718" y="0">F3</tspan></text><path d="M936.597 253.382 936.597 449.382" stroke="#000000" stroke-width="1.33333" stroke-linejoin="round" stroke-miterlimit="10" fill="none" fill-rule="evenodd"/><path d="M1008.66 253.382 1008.66 449.382" stroke="#000000" stroke-width="1.33333" stroke-linejoin="round" stroke-miterlimit="10" fill="none" fill-rule="evenodd"/><path d="M863.87 292.982 1081.38 292.982" stroke="#000000" stroke-width="1.33333" stroke-linejoin="round" stroke-miterlimit="10" fill="none" fill-rule="evenodd"/><path d="M863.87 331.915 1081.38 331.915" stroke="#000000" stroke-width="1.33333" stroke-linejoin="round" stroke-miterlimit="10" fill="none" fill-rule="evenodd"/><path d="M863.87 370.849 1081.38 370.849" stroke="#000000" stroke-width="1.33333" stroke-linejoin="round" stroke-miterlimit="10" fill="none" fill-rule="evenodd"/><path d="M863.87 409.782 1081.38 409.782" stroke="#000000" stroke-width="1.33333" stroke-linejoin="round" stroke-miterlimit="10" fill="none" fill-rule="evenodd"/><path d="M864.537 253.382 864.537 449.382" stroke="#000000" stroke-width="1.33333" stroke-linejoin="round" stroke-miterlimit="10" fill="none" fill-rule="evenodd"/><path d="M1080.72 253.382 1080.72 449.382" stroke="#000000" stroke-width="1.33333" stroke-linejoin="round" stroke-miterlimit="10" fill="none" fill-rule="evenodd"/><path d="M863.87 254.049 1081.38 254.049" stroke="#000000" stroke-width="1.33333" stroke-linejoin="round" stroke-miterlimit="10" fill="none" fill-rule="evenodd"/><path d="M863.87 448.715 1081.38 448.715" stroke="#000000" stroke-width="1.33333" stroke-linejoin="round" stroke-miterlimit="10" fill="none" fill-rule="evenodd"/><text font-family="DengXian,DengXian_MSFontService,sans-serif" font-weight="400" font-size="24" transform="translate(894.567 281)">a<tspan x="71.7271" y="0">1</tspan><tspan x="143.787" y="0">0</tspan><tspan x="-0.916687" y="39">b</tspan><tspan x="71.7271" y="39">2</tspan><tspan x="143.787" y="39">0</tspan><tspan x="0.583313" y="78">c</tspan><tspan x="71.7271" y="78">3</tspan><tspan x="143.787" y="78">0</tspan><tspan x="-0.916687" y="117">d</tspan><tspan x="71.7271" y="117">4</tspan><tspan x="143.787" y="117">0</tspan><tspan x="-0.166687" y="156">e</tspan><tspan x="71.7271" y="156">5</tspan><tspan x="143.787" y="156">0</tspan><tspan font-size="27" x="-295.051" y="-176">重命名</tspan></text><rect x="188" y="247" width="95" height="212" stroke="#000000" stroke-width="2" stroke-miterlimit="8" stroke-dasharray="8 6" fill="none"/></g></svg>