<svg width="1280" height="720" xmlns="http://www.w3.org/2000/svg" xmlns:xlink="http://www.w3.org/1999/xlink" overflow="hidden"><defs><clipPath id="clip0"><rect x="0" y="0" width="1280" height="720"/></clipPath></defs><g clip-path="url(#clip0)"><rect x="0" y="0" width="1280" height="720" fill="#FFFFFF"/><path d="M320.126 232.69 320.126 467.623" stroke="#000000" stroke-width="1.33333" stroke-linejoin="round" stroke-miterlimit="10" fill="none" fill-rule="evenodd"/><path d="M374.184 232.69 374.184 467.623" stroke="#000000" stroke-width="1.33333" stroke-linejoin="round" stroke-miterlimit="10" fill="none" fill-rule="evenodd"/><path d="M265.401 272.29 428.909 272.29" stroke="#000000" stroke-width="1.33333" stroke-linejoin="round" stroke-miterlimit="10" fill="none" fill-rule="evenodd"/><path d="M265.401 311.223 428.909 311.223" stroke="#000000" stroke-width="1.33333" stroke-linejoin="round" stroke-miterlimit="10" fill="none" fill-rule="evenodd"/><path d="M265.401 350.156 428.909 350.156" stroke="#000000" stroke-width="1.33333" stroke-linejoin="round" stroke-miterlimit="10" fill="none" fill-rule="evenodd"/><path d="M265.401 389.09 428.909 389.09" stroke="#000000" stroke-width="1.33333" stroke-linejoin="round" stroke-miterlimit="10" fill="none" fill-rule="evenodd"/><path d="M265.401 428.023 428.909 428.023" stroke="#000000" stroke-width="1.33333" stroke-linejoin="round" stroke-miterlimit="10" fill="none" fill-rule="evenodd"/><path d="M266.068 232.69 266.068 467.623" stroke="#000000" stroke-width="1.33333" stroke-linejoin="round" stroke-miterlimit="10" fill="none" fill-rule="evenodd"/><path d="M428.242 232.69 428.242 467.623" stroke="#000000" stroke-width="1.33333" stroke-linejoin="round" stroke-miterlimit="10" fill="none" fill-rule="evenodd"/><path d="M265.401 233.356 428.909 233.356" stroke="#000000" stroke-width="1.33333" stroke-linejoin="round" stroke-miterlimit="10" fill="none" fill-rule="evenodd"/><path d="M265.401 466.956 428.909 466.956" stroke="#000000" stroke-width="1.33333" stroke-linejoin="round" stroke-miterlimit="10" fill="none" fill-rule="evenodd"/><text font-family="DengXian,DengXian_MSFontService,sans-serif" font-weight="400" font-size="24" transform="translate(315.257 215)">数据集</text><rect x="610.5" y="150.5" width="162" height="50" stroke="#000000" stroke-width="1.33333" stroke-miterlimit="8" fill="#FFFFFF"/><text font-family="DengXian,DengXian_MSFontService,sans-serif" font-weight="400" font-size="24" transform="translate(655.37 183)">行过滤</text><rect x="610.5" y="219.5" width="162" height="50" stroke="#000000" stroke-width="1.33333" stroke-miterlimit="8" fill="#FFFFFF"/><text font-family="DengXian,DengXian_MSFontService,sans-serif" font-weight="400" font-size="24" transform="translate(667.37 252)">分组</text><rect x="610.5" y="288.5" width="162" height="50" stroke="#000000" stroke-width="1.33333" stroke-miterlimit="8" fill="#FFFFFF"/><text font-family="DengXian,DengXian_MSFontService,sans-serif" font-weight="400" font-size="24" transform="translate(667.37 320)">投影</text><rect x="610.5" y="356.5" width="162" height="51" stroke="#000000" stroke-width="1.33333" stroke-miterlimit="8" fill="#FFFFFF"/><text font-family="DengXian,DengXian_MSFontService,sans-serif" font-weight="400" font-size="24" transform="translate(655.37 389)">重命名</text><rect x="610.5" y="425.5" width="162" height="50" stroke="#000000" stroke-width="1.33333" stroke-miterlimit="8" fill="#FFFFFF"/><text font-family="DengXian,DengXian_MSFontService,sans-serif" font-weight="400" font-size="24" transform="translate(655.37 458)">重计算</text><rect x="610.5" y="494.5" width="162" height="50" stroke="#000000" stroke-width="1.33333" stroke-miterlimit="8" fill="#FFFFFF"/><text font-family="DengXian,DengXian_MSFontService,sans-serif" font-weight="400" font-size="24" transform="translate(667.37 527)">排序<tspan font-size="27" x="-121.709" y="-459">数据集后置操作</tspan></text><path d="M517.5 450.833 517.399 450.833 517.732 450.5 517.732 519.254 517.399 518.92 603.431 518.92 603.431 519.587 517.066 519.587 517.066 450.167 517.5 450.167ZM602.098 515.254 610.098 519.254 602.098 523.254Z"/><path d="M517.5 381.833 517.399 381.833 517.732 381.5 517.732 450.254 517.399 449.92 603.431 449.92 603.431 450.587 517.066 450.587 517.066 381.167 517.5 381.167ZM602.098 446.254 610.098 450.254 602.098 454.254Z"/><path d="M517.5 312.833 517.399 312.833 517.732 312.5 517.732 381.254 517.399 380.92 603.431 380.92 603.431 381.587 517.066 381.587 517.066 312.167 517.5 312.167ZM602.098 377.254 610.098 381.254 602.098 385.254Z"/><path d="M517.5 242.833 517.399 242.833 517.732 242.5 517.732 311.254 517.399 310.92 603.431 310.92 603.431 311.587 517.066 311.587 517.066 242.167 517.5 242.167ZM602.098 307.254 610.098 311.254 602.098 315.254Z"/><path d="M517.5 172.833 517.399 172.833 517.732 172.5 517.732 241.254 517.399 240.92 603.431 240.92 603.431 241.587 517.066 241.587 517.066 172.167 517.5 172.167ZM602.098 237.254 610.098 241.254 602.098 245.254Z"/><path d="M517.5 172.167 603.769 172.167 603.769 172.833 517.5 172.833ZM602.436 168.5 610.436 172.5 602.436 176.5Z"/><path d="M428.5 350.5 517.267 350.5" stroke="#000000" stroke-width="0.666667" stroke-miterlimit="8" fill="none" fill-rule="evenodd"/><path d="M0 0-0.100963 0-0.100963 68.7535 92.598 68.7535" stroke="#000000" stroke-width="0.666667" stroke-miterlimit="8" fill="none" fill-rule="evenodd" transform="matrix(-1 -8.74228e-08 -8.74228e-08 1 866.098 451.5)"/><path d="M0 0-0.100963 0-0.100963 68.7535 92.598 68.7535" stroke="#000000" stroke-width="0.666667" stroke-miterlimit="8" fill="none" fill-rule="evenodd" transform="matrix(-1 -8.74228e-08 -8.74228e-08 1 866.098 382.5)"/><path d="M0 0-0.100963 0-0.100963 68.7535 92.598 68.7535" stroke="#000000" stroke-width="0.666667" stroke-miterlimit="8" fill="none" fill-rule="evenodd" transform="matrix(-1 -8.74228e-08 -8.74228e-08 1 866.098 312.5)"/><path d="M0 0-0.100963 0-0.100963 68.7535 92.598 68.7535" stroke="#000000" stroke-width="0.666667" stroke-miterlimit="8" fill="none" fill-rule="evenodd" transform="matrix(-1 -8.74228e-08 -8.74228e-08 1 866.098 242.5)"/><path d="M0 0-0.100963 0-0.100963 68.7535 92.598 68.7535" stroke="#000000" stroke-width="0.666667" stroke-miterlimit="8" fill="none" fill-rule="evenodd" transform="matrix(-1 -8.74228e-08 -8.74228e-08 1 866.098 173.5)"/><path d="M0 0 92.9359 0.000104987" stroke="#000000" stroke-width="0.666667" stroke-miterlimit="8" fill="none" fill-rule="evenodd" transform="matrix(-1 -8.74228e-08 -8.74228e-08 1 865.436 173.5)"/><path d="M0 0.333333-41.713 0.333333-41.3797 0-41.3797 229.072-41.713 228.738 518.239 228.738 517.906 229.072 517.906 128.605 518.572 128.605 518.572 229.405-42.0464 229.405-42.0464-0.333333 0-0.333333ZM514.239 129.938 518.239 121.938 522.239 129.938Z" transform="matrix(-1 -8.74228e-08 -8.74228e-08 1 865.739 345.5)"/></g></svg>