<svg width="1280" height="720" xmlns="http://www.w3.org/2000/svg" xmlns:xlink="http://www.w3.org/1999/xlink" overflow="hidden"><defs><clipPath id="clip0"><rect x="0" y="0" width="1280" height="720"/></clipPath></defs><g clip-path="url(#clip0)"><rect x="0" y="0" width="1280" height="720" fill="#FFFFFF"/><text font-family="DengXian,DengXian_MSFontService,sans-serif" font-weight="400" font-size="24" transform="translate(230.49 250)">F1<tspan x="69.8588" y="0">F2</tspan><tspan x="139.718" y="0">F3</tspan></text><path d="M276.614 271.097 276.614 467.097" stroke="#000000" stroke-width="1.33333" stroke-linejoin="round" stroke-miterlimit="10" fill="none" fill-rule="evenodd"/><path d="M348.674 271.097 348.674 467.097" stroke="#000000" stroke-width="1.33333" stroke-linejoin="round" stroke-miterlimit="10" fill="none" fill-rule="evenodd"/><path d="M203.887 310.697 421.401 310.697" stroke="#000000" stroke-width="1.33333" stroke-linejoin="round" stroke-miterlimit="10" fill="none" fill-rule="evenodd"/><path d="M203.887 349.63 421.401 349.63" stroke="#000000" stroke-width="1.33333" stroke-linejoin="round" stroke-miterlimit="10" fill="none" fill-rule="evenodd"/><path d="M203.887 388.564 421.401 388.564" stroke="#000000" stroke-width="1.33333" stroke-linejoin="round" stroke-miterlimit="10" fill="none" fill-rule="evenodd"/><path d="M203.887 427.497 421.401 427.497" stroke="#000000" stroke-width="1.33333" stroke-linejoin="round" stroke-miterlimit="10" fill="none" fill-rule="evenodd"/><path d="M204.553 271.097 204.553 467.097" stroke="#000000" stroke-width="1.33333" stroke-linejoin="round" stroke-miterlimit="10" fill="none" fill-rule="evenodd"/><path d="M420.734 271.097 420.734 467.097" stroke="#000000" stroke-width="1.33333" stroke-linejoin="round" stroke-miterlimit="10" fill="none" fill-rule="evenodd"/><path d="M203.887 271.764 421.401 271.764" stroke="#000000" stroke-width="1.33333" stroke-linejoin="round" stroke-miterlimit="10" fill="none" fill-rule="evenodd"/><path d="M203.887 466.43 421.401 466.43" stroke="#000000" stroke-width="1.33333" stroke-linejoin="round" stroke-miterlimit="10" fill="none" fill-rule="evenodd"/><text font-family="DengXian,DengXian_MSFontService,sans-serif" font-weight="400" font-size="24" transform="translate(234.583 299)">a<tspan x="71.727" y="0">1</tspan><tspan x="143.787" y="0">0</tspan><tspan x="-0.916687" y="38">b</tspan><tspan x="71.727" y="38">2</tspan><tspan x="143.787" y="38">0</tspan><tspan x="0.583313" y="77">c</tspan><tspan x="71.727" y="77">3</tspan><tspan x="143.787" y="77">0</tspan><tspan x="-0.916687" y="116">d</tspan><tspan x="71.727" y="116">4</tspan><tspan x="143.787" y="116">0</tspan><tspan x="-0.166718" y="155">e</tspan><tspan x="71.727" y="155">5</tspan><tspan x="143.787" y="155">0</tspan><tspan x="320.695" y="49">以</tspan>F2<tspan x="368.862" y="49">降序重排序</tspan></text><path d="M550.5 374.167 716.261 374.167 716.261 374.833 550.5 374.833ZM714.927 370.5 722.927 374.5 714.927 378.5Z"/><text font-family="DengXian,DengXian_MSFontService,sans-serif" font-weight="400" font-size="24" transform="translate(885.757 250)">F1<tspan x="69.8588" y="0">F2</tspan><tspan x="139.718" y="0">F3</tspan></text><path d="M931.88 271.097 931.88 467.097" stroke="#000000" stroke-width="1.33333" stroke-linejoin="round" stroke-miterlimit="10" fill="none" fill-rule="evenodd"/><path d="M1003.94 271.097 1003.94 467.097" stroke="#000000" stroke-width="1.33333" stroke-linejoin="round" stroke-miterlimit="10" fill="none" fill-rule="evenodd"/><path d="M859.153 310.697 1076.67 310.697" stroke="#000000" stroke-width="1.33333" stroke-linejoin="round" stroke-miterlimit="10" fill="none" fill-rule="evenodd"/><path d="M859.153 349.63 1076.67 349.63" stroke="#000000" stroke-width="1.33333" stroke-linejoin="round" stroke-miterlimit="10" fill="none" fill-rule="evenodd"/><path d="M859.153 388.564 1076.67 388.564" stroke="#000000" stroke-width="1.33333" stroke-linejoin="round" stroke-miterlimit="10" fill="none" fill-rule="evenodd"/><path d="M859.153 427.497 1076.67 427.497" stroke="#000000" stroke-width="1.33333" stroke-linejoin="round" stroke-miterlimit="10" fill="none" fill-rule="evenodd"/><path d="M859.82 271.097 859.82 467.097" stroke="#000000" stroke-width="1.33333" stroke-linejoin="round" stroke-miterlimit="10" fill="none" fill-rule="evenodd"/><path d="M1076 271.097 1076 467.097" stroke="#000000" stroke-width="1.33333" stroke-linejoin="round" stroke-miterlimit="10" fill="none" fill-rule="evenodd"/><path d="M859.153 271.764 1076.67 271.764" stroke="#000000" stroke-width="1.33333" stroke-linejoin="round" stroke-miterlimit="10" fill="none" fill-rule="evenodd"/><path d="M859.153 466.43 1076.67 466.43" stroke="#000000" stroke-width="1.33333" stroke-linejoin="round" stroke-miterlimit="10" fill="none" fill-rule="evenodd"/><text font-family="DengXian,DengXian_MSFontService,sans-serif" font-weight="400" font-size="24" transform="translate(889.683 299)">e<tspan x="71.8937" y="0">5</tspan><tspan x="143.954" y="0">0</tspan><tspan x="-0.75" y="38">d</tspan><tspan x="71.8937" y="38">4</tspan><tspan x="143.954" y="38">0</tspan><tspan x="0.75" y="77">c</tspan><tspan x="71.8937" y="77">3</tspan><tspan x="143.954" y="77">0</tspan><tspan x="-0.75" y="116">b</tspan><tspan x="71.8937" y="116">2</tspan><tspan x="143.954" y="116">0</tspan><tspan x="0.166748" y="155">a</tspan><tspan x="71.8937" y="155">1</tspan><tspan x="143.954" y="155">0</tspan><tspan font-size="27" x="-276.704" y="-194">排序</tspan></text><rect x="262" y="265" width="96" height="212" stroke="#000000" stroke-width="2" stroke-miterlimit="8" stroke-dasharray="8 6" fill="none"/></g></svg>